<svg 
 xmlns="http://www.w3.org/2000/svg"
 xmlns:xlink="http://www.w3.org/1999/xlink"
 width="80px" height="43px">
<defs>
<linearGradient id="PSgrad_0" x1="0%" x2="100%" y1="0%" y2="0%">
  <stop offset="0%" stop-color="rgb(0,80,131)" stop-opacity="1" />
  <stop offset="100%" stop-color="rgb(34,185,119)" stop-opacity="1" />
</linearGradient>

</defs>
<path fill-rule="evenodd"  fill="rgb(0, 0, 0)"
 d="M79.951,42.620 C79.856,42.843 79.634,43.000 79.375,43.000 C77.266,43.000 76.209,42.025 75.438,41.313 C74.716,40.647 74.352,40.314 73.423,40.625 C69.537,41.935 63.376,43.000 59.687,43.000 C59.687,43.000 59.686,43.000 59.686,43.000 C57.577,42.999 56.521,42.024 55.750,41.313 C55.029,40.647 54.663,40.314 53.735,40.625 C49.850,41.935 43.689,43.000 40.000,43.000 C39.999,43.000 39.998,43.000 39.998,43.000 C37.889,42.999 36.834,42.024 36.063,41.313 C35.341,40.647 34.978,40.314 34.047,40.625 C30.162,41.935 24.000,43.000 20.312,43.000 C20.311,43.000 20.311,43.000 20.310,43.000 C18.201,42.999 17.146,42.024 16.376,41.313 C15.653,40.647 15.292,40.314 14.360,40.625 C10.474,41.935 4.313,43.000 0.624,43.000 C0.279,43.000 -0.001,42.721 -0.001,42.377 C-0.001,42.377 -0.001,42.377 -0.001,42.377 C-0.001,42.377 -0.001,42.377 -0.001,42.377 L-0.001,39.883 C-0.001,39.855 0.012,39.830 0.016,39.803 C0.019,39.776 0.013,39.750 0.021,39.723 L10.021,2.323 C10.024,2.309 10.035,2.300 10.039,2.287 C10.054,2.242 10.076,2.203 10.100,2.164 C10.119,2.134 10.135,2.105 10.158,2.079 C10.188,2.044 10.223,2.017 10.260,1.990 C10.288,1.970 10.313,1.950 10.343,1.934 C10.382,1.914 10.424,1.903 10.467,1.892 C10.504,1.882 10.540,1.872 10.579,1.869 C10.595,1.868 10.608,1.860 10.624,1.860 C13.216,1.860 17.750,1.075 20.523,0.145 C20.539,0.140 20.552,0.139 20.568,0.134 C20.577,0.132 20.585,0.129 20.594,0.128 C21.854,-0.264 22.556,0.372 23.118,0.891 C23.657,1.390 24.166,1.860 25.312,1.860 C25.312,1.860 25.312,1.860 25.312,1.860 C25.312,1.860 25.312,1.860 25.312,1.860 C27.904,1.860 32.437,1.075 35.211,0.145 C36.518,-0.296 37.233,0.362 37.806,0.891 C38.345,1.390 38.854,1.860 40.000,1.860 C42.593,1.860 47.125,1.075 49.899,0.145 C51.203,-0.298 51.916,0.361 52.490,0.890 C53.030,1.389 53.540,1.860 54.687,1.860 C57.280,1.860 61.813,1.075 64.586,0.145 C64.605,0.139 64.621,0.138 64.639,0.132 C64.642,0.131 64.643,0.130 64.646,0.129 C64.648,0.129 64.650,0.129 64.652,0.129 C65.915,-0.269 66.614,0.370 67.178,0.890 C67.717,1.389 68.228,1.860 69.375,1.860 C69.391,1.860 69.405,1.868 69.420,1.869 C69.462,1.872 69.499,1.882 69.539,1.893 C69.578,1.904 69.617,1.914 69.653,1.932 C69.688,1.950 69.717,1.973 69.748,1.996 C69.781,2.021 69.812,2.045 69.839,2.076 C69.864,2.104 69.882,2.135 69.901,2.167 C69.925,2.206 69.946,2.244 69.960,2.287 C69.965,2.300 69.974,2.310 69.978,2.323 L79.978,39.723 C79.985,39.749 79.980,39.775 79.983,39.801 C79.987,39.829 80.000,39.854 80.000,39.883 L80.000,42.377 C80.000,42.463 79.982,42.545 79.951,42.620 ZM11.109,3.091 L1.445,39.233 C4.916,39.100 10.152,38.172 13.611,37.058 L15.114,28.632 C12.422,29.432 8.861,30.122 5.884,30.402 C5.864,30.403 5.845,30.404 5.825,30.404 C5.506,30.404 5.234,30.162 5.204,29.839 C5.171,29.496 5.423,29.193 5.767,29.160 C8.905,28.866 12.696,28.105 15.360,27.247 L16.646,20.037 C14.211,20.752 10.972,21.382 8.226,21.658 C8.204,21.660 8.183,21.661 8.162,21.661 C7.845,21.661 7.573,21.422 7.541,21.100 C7.506,20.758 7.757,20.452 8.100,20.417 C11.018,20.124 14.486,19.423 16.893,18.652 L17.960,12.667 C15.677,13.340 12.782,13.920 10.226,14.182 C10.204,14.183 10.183,14.185 10.162,14.185 C9.845,14.185 9.573,13.946 9.540,13.625 C9.506,13.283 9.755,12.976 10.098,12.941 C12.761,12.668 15.954,12.018 18.203,11.303 L19.054,6.534 C16.935,7.152 14.262,7.689 11.892,7.940 C11.870,7.943 11.847,7.944 11.826,7.944 C11.510,7.944 11.239,7.707 11.205,7.386 C11.168,7.044 11.417,6.738 11.760,6.701 C14.289,6.432 17.186,5.834 19.298,5.162 L19.928,1.633 C17.205,2.416 13.577,3.020 11.109,3.091 ZM22.269,1.806 C21.834,1.404 21.608,1.226 21.265,1.253 L14.931,36.775 C15.966,36.754 16.629,37.355 17.225,37.905 C17.860,38.492 18.516,39.095 19.769,39.231 L20.938,30.483 C19.448,30.287 18.621,29.528 17.997,28.952 L17.876,28.841 C17.622,28.609 17.605,28.214 17.839,27.961 C18.073,27.707 18.468,27.693 18.722,27.923 L18.846,28.037 C19.416,28.564 20.007,29.104 21.104,29.247 L22.104,21.761 C20.696,21.578 19.925,20.870 19.343,20.331 C19.089,20.097 19.075,19.702 19.309,19.450 C19.544,19.196 19.938,19.182 20.192,19.417 C20.710,19.896 21.272,20.366 22.273,20.501 L23.106,14.267 C21.957,14.096 21.257,13.553 20.689,13.033 C20.435,12.800 20.418,12.406 20.651,12.153 C20.884,11.898 21.280,11.881 21.534,12.115 C22.002,12.543 22.486,12.899 23.273,13.023 L23.942,8.019 C22.947,7.861 22.284,7.418 21.777,6.967 C21.519,6.739 21.497,6.345 21.727,6.088 C21.957,5.830 22.352,5.808 22.609,6.037 C22.976,6.364 23.407,6.674 24.106,6.791 L24.606,3.050 C23.432,2.870 22.769,2.268 22.269,1.806 ZM25.862,3.091 L25.290,7.363 C25.297,7.399 25.312,7.432 25.312,7.470 C25.312,7.572 25.282,7.664 25.239,7.749 L24.460,13.572 C24.470,13.616 24.487,13.657 24.487,13.704 C24.487,13.812 24.452,13.909 24.403,13.997 L22.291,29.797 C22.298,29.835 22.314,29.870 22.314,29.910 C22.314,30.013 22.283,30.106 22.238,30.192 L21.029,39.237 C24.478,39.120 29.746,38.193 33.242,37.075 L33.602,28.588 C30.908,29.401 27.274,30.109 24.222,30.398 C24.202,30.399 24.182,30.401 24.163,30.401 C23.844,30.401 23.572,30.158 23.541,29.836 C23.508,29.494 23.761,29.189 24.105,29.156 C27.246,28.861 31.011,28.109 33.658,27.264 L33.967,19.994 C31.510,20.730 28.197,21.380 25.393,21.660 C25.371,21.662 25.350,21.664 25.330,21.664 C25.012,21.664 24.741,21.424 24.708,21.102 C24.674,20.760 24.924,20.454 25.268,20.420 C28.167,20.130 31.611,19.436 34.023,18.669 L34.279,12.644 C32.005,13.317 28.966,13.914 26.395,14.179 C26.373,14.181 26.352,14.182 26.331,14.182 C26.014,14.182 25.743,13.944 25.709,13.623 C25.674,13.281 25.924,12.974 26.267,12.938 C28.933,12.664 32.101,12.024 34.335,11.321 L34.539,6.511 C32.422,7.131 29.601,7.686 27.206,7.940 C27.183,7.943 27.161,7.944 27.139,7.944 C26.823,7.944 26.552,7.707 26.518,7.387 C26.482,7.044 26.730,6.738 27.073,6.701 C29.567,6.436 32.516,5.837 34.595,5.187 L34.748,1.591 C32.033,2.388 28.370,3.008 25.862,3.091 ZM39.375,30.497 C37.805,30.328 36.949,29.545 36.308,28.953 C36.055,28.718 36.040,28.324 36.275,28.072 C36.510,27.818 36.903,27.804 37.158,28.038 C37.721,28.558 38.305,29.089 39.375,29.240 L39.375,21.773 C38.062,21.626 37.296,21.029 36.674,20.463 C36.419,20.231 36.401,19.837 36.634,19.583 C36.867,19.327 37.263,19.310 37.517,19.543 C37.996,19.979 38.524,20.364 39.375,20.498 L39.375,14.264 C38.260,14.122 37.529,13.649 36.980,13.163 C36.721,12.935 36.698,12.541 36.927,12.284 C37.155,12.024 37.551,12.001 37.810,12.231 C38.177,12.556 38.637,12.889 39.375,13.018 L39.375,8.034 C38.374,7.903 37.717,7.495 37.262,7.116 C36.997,6.895 36.962,6.503 37.183,6.238 C37.405,5.974 37.798,5.939 38.063,6.159 C38.389,6.431 38.779,6.685 39.375,6.792 L39.375,3.065 C38.148,2.902 37.469,2.279 36.957,1.806 C36.548,1.428 36.325,1.248 36.013,1.251 L35.825,5.697 C35.825,5.697 35.825,5.697 35.825,5.698 L35.564,11.830 C35.564,11.830 35.564,11.830 35.564,11.830 L34.505,36.783 C35.605,36.715 36.296,37.335 36.912,37.905 C37.533,38.478 38.176,39.066 39.375,39.219 L39.375,30.497 ZM50.579,12.612 C48.304,13.293 45.204,13.904 42.564,14.178 C42.542,14.180 42.520,14.181 42.500,14.181 C42.182,14.181 41.911,13.942 41.877,13.622 C41.843,13.279 42.092,12.973 42.435,12.937 C45.105,12.661 48.243,12.032 50.460,11.343 L50.006,6.478 C47.896,7.105 45.024,7.673 42.565,7.936 C42.544,7.938 42.522,7.939 42.500,7.939 C42.184,7.939 41.913,7.702 41.878,7.382 C41.841,7.040 42.090,6.733 42.434,6.696 C44.922,6.430 47.832,5.844 49.887,5.209 L49.546,1.557 C46.846,2.363 43.166,2.995 40.625,3.088 L40.625,13.656 C40.626,13.673 40.634,13.687 40.634,13.704 C40.634,13.721 40.626,13.735 40.625,13.752 L40.625,39.240 C44.050,39.137 49.338,38.214 52.865,37.095 L52.068,28.554 C49.381,29.375 45.684,30.098 42.558,30.396 C42.539,30.397 42.519,30.398 42.500,30.398 C42.180,30.398 41.909,30.157 41.877,29.834 C41.845,29.491 42.097,29.187 42.441,29.154 C45.538,28.860 49.350,28.103 51.949,27.285 L51.265,19.960 C48.794,20.710 45.418,21.377 42.562,21.663 C42.541,21.665 42.519,21.666 42.500,21.666 C42.182,21.666 41.910,21.426 41.877,21.105 C41.843,20.762 42.094,20.456 42.437,20.422 C45.321,20.134 48.735,19.450 51.146,18.691 L50.579,12.612 ZM52.788,7.288 C52.512,7.081 52.457,6.691 52.663,6.415 C52.871,6.139 53.264,6.085 53.540,6.291 C53.786,6.476 54.126,6.677 54.630,6.779 L54.135,3.075 C52.861,2.928 52.165,2.289 51.640,1.805 C51.267,1.460 51.046,1.291 50.775,1.264 L54.093,36.790 C55.252,36.676 55.965,37.318 56.600,37.905 C57.203,38.462 57.830,39.030 58.965,39.202 L57.803,30.507 C56.321,30.382 55.469,29.728 54.786,29.106 C54.531,28.874 54.513,28.481 54.746,28.226 C54.978,27.971 55.375,27.954 55.629,28.186 C56.146,28.657 56.715,29.073 57.630,29.218 L56.636,21.780 C55.376,21.656 54.594,21.114 53.992,20.582 C53.734,20.353 53.709,19.959 53.938,19.702 C54.170,19.445 54.563,19.422 54.821,19.648 C55.210,19.992 55.692,20.346 56.463,20.489 L55.633,14.278 C54.528,14.164 53.814,13.734 53.327,13.334 C53.059,13.116 53.021,12.723 53.240,12.457 C53.458,12.193 53.852,12.151 54.120,12.371 C54.457,12.647 54.854,12.907 55.465,13.021 L54.802,8.059 C54.043,7.982 53.390,7.739 52.788,7.288 ZM65.446,6.416 C63.307,7.073 60.444,7.658 57.900,7.933 C57.878,7.935 57.855,7.937 57.832,7.937 C57.517,7.937 57.246,7.700 57.212,7.380 C57.175,7.038 57.422,6.731 57.766,6.694 C60.226,6.428 63.118,5.842 65.169,5.207 L64.326,1.529 C61.649,2.338 57.966,2.979 55.399,3.085 L60.233,39.243 C63.634,39.152 68.929,38.234 72.484,37.116 L70.510,28.504 C67.815,29.344 64.054,30.091 60.896,30.395 C60.876,30.396 60.856,30.397 60.835,30.397 C60.518,30.397 60.245,30.156 60.215,29.833 C60.180,29.491 60.432,29.186 60.776,29.153 C63.895,28.854 67.609,28.113 70.230,27.285 L68.545,19.931 C66.058,20.697 62.627,21.378 59.731,21.664 C59.709,21.666 59.690,21.667 59.668,21.667 C59.350,21.667 59.079,21.427 59.048,21.105 C59.013,20.763 59.264,20.458 59.607,20.423 C62.464,20.140 65.850,19.466 68.265,18.712 L66.855,12.563 C64.568,13.264 61.405,13.897 58.731,14.174 C58.709,14.176 58.688,14.177 58.667,14.177 C58.350,14.177 58.078,13.939 58.044,13.619 C58.010,13.276 58.259,12.969 58.602,12.934 C61.241,12.660 64.360,12.034 66.576,11.345 L65.446,6.416 ZM68.888,3.079 C67.574,2.946 66.861,2.296 66.328,1.805 C65.995,1.497 65.784,1.333 65.550,1.279 L66.385,4.921 C67.274,4.883 67.843,5.392 68.314,5.826 C68.567,6.060 68.584,6.456 68.351,6.709 C68.115,6.960 67.721,6.979 67.468,6.745 C67.131,6.434 66.912,6.260 66.677,6.194 L67.790,11.051 C68.741,10.992 69.347,11.534 69.849,11.996 L70.003,12.138 C70.259,12.370 70.277,12.764 70.045,13.019 C69.813,13.274 69.418,13.293 69.162,13.061 L68.999,12.912 C68.613,12.556 68.365,12.368 68.080,12.314 L69.475,18.401 C70.523,18.293 71.161,18.869 71.731,19.396 L71.997,19.639 C72.256,19.868 72.278,20.262 72.049,20.519 C71.819,20.775 71.423,20.798 71.167,20.571 L70.881,20.310 C70.434,19.898 70.156,19.656 69.759,19.638 L71.444,26.987 C72.519,26.895 73.184,27.490 73.777,28.038 C73.948,28.196 74.126,28.362 74.326,28.519 C74.596,28.733 74.641,29.125 74.426,29.395 C74.212,29.664 73.818,29.710 73.548,29.495 C73.323,29.316 73.120,29.131 72.927,28.952 C72.442,28.503 72.134,28.262 71.729,28.232 L73.693,36.797 C74.906,36.638 75.635,37.303 76.288,37.905 C76.871,38.444 77.478,38.991 78.542,39.183 L68.888,3.079 ZM78.750,40.470 C77.053,40.299 76.128,39.457 75.438,38.819 C74.716,38.153 74.352,37.821 73.423,38.132 C69.537,39.442 63.376,40.507 59.687,40.507 C57.578,40.507 56.521,39.532 55.750,38.819 C55.029,38.153 54.663,37.821 53.735,38.132 C49.850,39.442 43.689,40.507 40.000,40.507 C37.890,40.507 36.834,39.532 36.063,38.819 C35.341,38.153 34.978,37.821 34.047,38.132 C30.162,39.442 24.001,40.507 20.313,40.507 C20.313,40.507 20.313,40.507 20.313,40.507 C20.313,40.507 20.312,40.507 20.312,40.507 C20.312,40.507 20.312,40.507 20.312,40.507 C20.294,40.507 20.279,40.504 20.261,40.504 C20.250,40.503 20.240,40.503 20.230,40.502 C20.230,40.502 20.230,40.502 20.230,40.502 C18.177,40.476 17.136,39.522 16.376,38.819 C15.653,38.153 15.292,37.821 14.360,38.132 C10.678,39.373 4.978,40.383 1.249,40.487 L1.249,41.733 C4.825,41.626 10.448,40.627 13.959,39.444 C15.593,38.889 16.461,39.692 17.225,40.398 C17.946,41.065 18.692,41.754 20.312,41.754 C20.312,41.754 20.312,41.754 20.312,41.754 C20.312,41.754 20.312,41.754 20.312,41.754 C23.826,41.754 29.933,40.696 33.647,39.444 C35.282,38.889 36.149,39.692 36.912,40.398 C37.634,41.065 38.380,41.754 40.000,41.754 C43.514,41.754 49.621,40.696 53.335,39.444 C54.969,38.889 55.836,39.692 56.600,40.398 C57.322,41.065 58.066,41.754 59.687,41.754 C59.687,41.754 59.687,41.754 59.687,41.754 C59.687,41.754 59.687,41.754 59.687,41.754 C63.202,41.754 69.309,40.696 73.022,39.444 C74.658,38.889 75.523,39.692 76.288,40.398 C76.909,40.972 77.550,41.560 78.750,41.713 L78.750,40.470 Z"/>
<path fill="url(#PSgrad_0)"
 d="M79.951,42.620 C79.856,42.843 79.634,43.000 79.375,43.000 C77.266,43.000 76.209,42.025 75.438,41.313 C74.716,40.647 74.352,40.314 73.423,40.625 C69.537,41.935 63.376,43.000 59.687,43.000 C59.687,43.000 59.686,43.000 59.686,43.000 C57.577,42.999 56.521,42.024 55.750,41.313 C55.029,40.647 54.663,40.314 53.735,40.625 C49.850,41.935 43.689,43.000 40.000,43.000 C39.999,43.000 39.998,43.000 39.998,43.000 C37.889,42.999 36.834,42.024 36.063,41.313 C35.341,40.647 34.978,40.314 34.047,40.625 C30.162,41.935 24.000,43.000 20.312,43.000 C20.311,43.000 20.311,43.000 20.310,43.000 C18.201,42.999 17.146,42.024 16.376,41.313 C15.653,40.647 15.292,40.314 14.360,40.625 C10.474,41.935 4.313,43.000 0.624,43.000 C0.279,43.000 -0.001,42.721 -0.001,42.377 C-0.001,42.377 -0.001,42.377 -0.001,42.377 C-0.001,42.377 -0.001,42.377 -0.001,42.377 L-0.001,39.883 C-0.001,39.855 0.012,39.830 0.016,39.803 C0.019,39.776 0.013,39.750 0.021,39.723 L10.021,2.323 C10.024,2.309 10.035,2.300 10.039,2.287 C10.054,2.242 10.076,2.203 10.100,2.164 C10.119,2.134 10.135,2.105 10.158,2.079 C10.188,2.044 10.223,2.017 10.260,1.990 C10.288,1.970 10.313,1.950 10.343,1.934 C10.382,1.914 10.424,1.903 10.467,1.892 C10.504,1.882 10.540,1.872 10.579,1.869 C10.595,1.868 10.608,1.860 10.624,1.860 C13.216,1.860 17.750,1.075 20.523,0.145 C20.539,0.140 20.552,0.139 20.568,0.134 C20.577,0.132 20.585,0.129 20.594,0.128 C21.854,-0.264 22.556,0.372 23.118,0.891 C23.657,1.390 24.166,1.860 25.312,1.860 C25.312,1.860 25.312,1.860 25.312,1.860 C25.312,1.860 25.312,1.860 25.312,1.860 C27.904,1.860 32.437,1.075 35.211,0.145 C36.518,-0.296 37.233,0.362 37.806,0.891 C38.345,1.390 38.854,1.860 40.000,1.860 C42.593,1.860 47.125,1.075 49.899,0.145 C51.203,-0.298 51.916,0.361 52.490,0.890 C53.030,1.389 53.540,1.860 54.687,1.860 C57.280,1.860 61.813,1.075 64.586,0.145 C64.605,0.139 64.621,0.138 64.639,0.132 C64.642,0.131 64.643,0.130 64.646,0.129 C64.648,0.129 64.650,0.129 64.652,0.129 C65.915,-0.269 66.614,0.370 67.178,0.890 C67.717,1.389 68.228,1.860 69.375,1.860 C69.391,1.860 69.405,1.868 69.420,1.869 C69.462,1.872 69.499,1.882 69.539,1.893 C69.578,1.904 69.617,1.914 69.653,1.932 C69.688,1.950 69.717,1.973 69.748,1.996 C69.781,2.021 69.812,2.045 69.839,2.076 C69.864,2.104 69.882,2.135 69.901,2.167 C69.925,2.206 69.946,2.244 69.960,2.287 C69.965,2.300 69.974,2.310 69.978,2.323 L79.978,39.723 C79.985,39.749 79.980,39.775 79.983,39.801 C79.987,39.829 80.000,39.854 80.000,39.883 L80.000,42.377 C80.000,42.463 79.982,42.545 79.951,42.620 ZM11.109,3.091 L1.445,39.233 C4.916,39.100 10.152,38.172 13.611,37.058 L15.114,28.632 C12.422,29.432 8.861,30.122 5.884,30.402 C5.864,30.403 5.845,30.404 5.825,30.404 C5.506,30.404 5.234,30.162 5.204,29.839 C5.171,29.496 5.423,29.193 5.767,29.160 C8.905,28.866 12.696,28.105 15.360,27.247 L16.646,20.037 C14.211,20.752 10.972,21.382 8.226,21.658 C8.204,21.660 8.183,21.661 8.162,21.661 C7.845,21.661 7.573,21.422 7.541,21.100 C7.506,20.758 7.757,20.452 8.100,20.417 C11.018,20.124 14.486,19.423 16.893,18.652 L17.960,12.667 C15.677,13.340 12.782,13.920 10.226,14.182 C10.204,14.183 10.183,14.185 10.162,14.185 C9.845,14.185 9.573,13.946 9.540,13.625 C9.506,13.283 9.755,12.976 10.098,12.941 C12.761,12.668 15.954,12.018 18.203,11.303 L19.054,6.534 C16.935,7.152 14.262,7.689 11.892,7.940 C11.870,7.943 11.847,7.944 11.826,7.944 C11.510,7.944 11.239,7.707 11.205,7.386 C11.168,7.044 11.417,6.738 11.760,6.701 C14.289,6.432 17.186,5.834 19.298,5.162 L19.928,1.633 C17.205,2.416 13.577,3.020 11.109,3.091 ZM22.269,1.806 C21.834,1.404 21.608,1.226 21.265,1.253 L14.931,36.775 C15.966,36.754 16.629,37.355 17.225,37.905 C17.860,38.492 18.516,39.095 19.769,39.231 L20.938,30.483 C19.448,30.287 18.621,29.528 17.997,28.952 L17.876,28.841 C17.622,28.609 17.605,28.214 17.839,27.961 C18.073,27.707 18.468,27.693 18.722,27.923 L18.846,28.037 C19.416,28.564 20.007,29.104 21.104,29.247 L22.104,21.761 C20.696,21.578 19.925,20.870 19.343,20.331 C19.089,20.097 19.075,19.702 19.309,19.450 C19.544,19.196 19.938,19.182 20.192,19.417 C20.710,19.896 21.272,20.366 22.273,20.501 L23.106,14.267 C21.957,14.096 21.257,13.553 20.689,13.033 C20.435,12.800 20.418,12.406 20.651,12.153 C20.884,11.898 21.280,11.881 21.534,12.115 C22.002,12.543 22.486,12.899 23.273,13.023 L23.942,8.019 C22.947,7.861 22.284,7.418 21.777,6.967 C21.519,6.739 21.497,6.345 21.727,6.088 C21.957,5.830 22.352,5.808 22.609,6.037 C22.976,6.364 23.407,6.674 24.106,6.791 L24.606,3.050 C23.432,2.870 22.769,2.268 22.269,1.806 ZM25.862,3.091 L25.290,7.363 C25.297,7.399 25.312,7.432 25.312,7.470 C25.312,7.572 25.282,7.664 25.239,7.749 L24.460,13.572 C24.470,13.616 24.487,13.657 24.487,13.704 C24.487,13.812 24.452,13.909 24.403,13.997 L22.291,29.797 C22.298,29.835 22.314,29.870 22.314,29.910 C22.314,30.013 22.283,30.106 22.238,30.192 L21.029,39.237 C24.478,39.120 29.746,38.193 33.242,37.075 L33.602,28.588 C30.908,29.401 27.274,30.109 24.222,30.398 C24.202,30.399 24.182,30.401 24.163,30.401 C23.844,30.401 23.572,30.158 23.541,29.836 C23.508,29.494 23.761,29.189 24.105,29.156 C27.246,28.861 31.011,28.109 33.658,27.264 L33.967,19.994 C31.510,20.730 28.197,21.380 25.393,21.660 C25.371,21.662 25.350,21.664 25.330,21.664 C25.012,21.664 24.741,21.424 24.708,21.102 C24.674,20.760 24.924,20.454 25.268,20.420 C28.167,20.130 31.611,19.436 34.023,18.669 L34.279,12.644 C32.005,13.317 28.966,13.914 26.395,14.179 C26.373,14.181 26.352,14.182 26.331,14.182 C26.014,14.182 25.743,13.944 25.709,13.623 C25.674,13.281 25.924,12.974 26.267,12.938 C28.933,12.664 32.101,12.024 34.335,11.321 L34.539,6.511 C32.422,7.131 29.601,7.686 27.206,7.940 C27.183,7.943 27.161,7.944 27.139,7.944 C26.823,7.944 26.552,7.707 26.518,7.387 C26.482,7.044 26.730,6.738 27.073,6.701 C29.567,6.436 32.516,5.837 34.595,5.187 L34.748,1.591 C32.033,2.388 28.370,3.008 25.862,3.091 ZM39.375,30.497 C37.805,30.328 36.949,29.545 36.308,28.953 C36.055,28.718 36.040,28.324 36.275,28.072 C36.510,27.818 36.903,27.804 37.158,28.038 C37.721,28.558 38.305,29.089 39.375,29.240 L39.375,21.773 C38.062,21.626 37.296,21.029 36.674,20.463 C36.419,20.231 36.401,19.837 36.634,19.583 C36.867,19.327 37.263,19.310 37.517,19.543 C37.996,19.979 38.524,20.364 39.375,20.498 L39.375,14.264 C38.260,14.122 37.529,13.649 36.980,13.163 C36.721,12.935 36.698,12.541 36.927,12.284 C37.155,12.024 37.551,12.001 37.810,12.231 C38.177,12.556 38.637,12.889 39.375,13.018 L39.375,8.034 C38.374,7.903 37.717,7.495 37.262,7.116 C36.997,6.895 36.962,6.503 37.183,6.238 C37.405,5.974 37.798,5.939 38.063,6.159 C38.389,6.431 38.779,6.685 39.375,6.792 L39.375,3.065 C38.148,2.902 37.469,2.279 36.957,1.806 C36.548,1.428 36.325,1.248 36.013,1.251 L35.825,5.697 C35.825,5.697 35.825,5.697 35.825,5.698 L35.564,11.830 C35.564,11.830 35.564,11.830 35.564,11.830 L34.505,36.783 C35.605,36.715 36.296,37.335 36.912,37.905 C37.533,38.478 38.176,39.066 39.375,39.219 L39.375,30.497 ZM50.579,12.612 C48.304,13.293 45.204,13.904 42.564,14.178 C42.542,14.180 42.520,14.181 42.500,14.181 C42.182,14.181 41.911,13.942 41.877,13.622 C41.843,13.279 42.092,12.973 42.435,12.937 C45.105,12.661 48.243,12.032 50.460,11.343 L50.006,6.478 C47.896,7.105 45.024,7.673 42.565,7.936 C42.544,7.938 42.522,7.939 42.500,7.939 C42.184,7.939 41.913,7.702 41.878,7.382 C41.841,7.040 42.090,6.733 42.434,6.696 C44.922,6.430 47.832,5.844 49.887,5.209 L49.546,1.557 C46.846,2.363 43.166,2.995 40.625,3.088 L40.625,13.656 C40.626,13.673 40.634,13.687 40.634,13.704 C40.634,13.721 40.626,13.735 40.625,13.752 L40.625,39.240 C44.050,39.137 49.338,38.214 52.865,37.095 L52.068,28.554 C49.381,29.375 45.684,30.098 42.558,30.396 C42.539,30.397 42.519,30.398 42.500,30.398 C42.180,30.398 41.909,30.157 41.877,29.834 C41.845,29.491 42.097,29.187 42.441,29.154 C45.538,28.860 49.350,28.103 51.949,27.285 L51.265,19.960 C48.794,20.710 45.418,21.377 42.562,21.663 C42.541,21.665 42.519,21.666 42.500,21.666 C42.182,21.666 41.910,21.426 41.877,21.105 C41.843,20.762 42.094,20.456 42.437,20.422 C45.321,20.134 48.735,19.450 51.146,18.691 L50.579,12.612 ZM52.788,7.288 C52.512,7.081 52.457,6.691 52.663,6.415 C52.871,6.139 53.264,6.085 53.540,6.291 C53.786,6.476 54.126,6.677 54.630,6.779 L54.135,3.075 C52.861,2.928 52.165,2.289 51.640,1.805 C51.267,1.460 51.046,1.291 50.775,1.264 L54.093,36.790 C55.252,36.676 55.965,37.318 56.600,37.905 C57.203,38.462 57.830,39.030 58.965,39.202 L57.803,30.507 C56.321,30.382 55.469,29.728 54.786,29.106 C54.531,28.874 54.513,28.481 54.746,28.226 C54.978,27.971 55.375,27.954 55.629,28.186 C56.146,28.657 56.715,29.073 57.630,29.218 L56.636,21.780 C55.376,21.656 54.594,21.114 53.992,20.582 C53.734,20.353 53.709,19.959 53.938,19.702 C54.170,19.445 54.563,19.422 54.821,19.648 C55.210,19.992 55.692,20.346 56.463,20.489 L55.633,14.278 C54.528,14.164 53.814,13.734 53.327,13.334 C53.059,13.116 53.021,12.723 53.240,12.457 C53.458,12.193 53.852,12.151 54.120,12.371 C54.457,12.647 54.854,12.907 55.465,13.021 L54.802,8.059 C54.043,7.982 53.390,7.739 52.788,7.288 ZM65.446,6.416 C63.307,7.073 60.444,7.658 57.900,7.933 C57.878,7.935 57.855,7.937 57.832,7.937 C57.517,7.937 57.246,7.700 57.212,7.380 C57.175,7.038 57.422,6.731 57.766,6.694 C60.226,6.428 63.118,5.842 65.169,5.207 L64.326,1.529 C61.649,2.338 57.966,2.979 55.399,3.085 L60.233,39.243 C63.634,39.152 68.929,38.234 72.484,37.116 L70.510,28.504 C67.815,29.344 64.054,30.091 60.896,30.395 C60.876,30.396 60.856,30.397 60.835,30.397 C60.518,30.397 60.245,30.156 60.215,29.833 C60.180,29.491 60.432,29.186 60.776,29.153 C63.895,28.854 67.609,28.113 70.230,27.285 L68.545,19.931 C66.058,20.697 62.627,21.378 59.731,21.664 C59.709,21.666 59.690,21.667 59.668,21.667 C59.350,21.667 59.079,21.427 59.048,21.105 C59.013,20.763 59.264,20.458 59.607,20.423 C62.464,20.140 65.850,19.466 68.265,18.712 L66.855,12.563 C64.568,13.264 61.405,13.897 58.731,14.174 C58.709,14.176 58.688,14.177 58.667,14.177 C58.350,14.177 58.078,13.939 58.044,13.619 C58.010,13.276 58.259,12.969 58.602,12.934 C61.241,12.660 64.360,12.034 66.576,11.345 L65.446,6.416 ZM68.888,3.079 C67.574,2.946 66.861,2.296 66.328,1.805 C65.995,1.497 65.784,1.333 65.550,1.279 L66.385,4.921 C67.274,4.883 67.843,5.392 68.314,5.826 C68.567,6.060 68.584,6.456 68.351,6.709 C68.115,6.960 67.721,6.979 67.468,6.745 C67.131,6.434 66.912,6.260 66.677,6.194 L67.790,11.051 C68.741,10.992 69.347,11.534 69.849,11.996 L70.003,12.138 C70.259,12.370 70.277,12.764 70.045,13.019 C69.813,13.274 69.418,13.293 69.162,13.061 L68.999,12.912 C68.613,12.556 68.365,12.368 68.080,12.314 L69.475,18.401 C70.523,18.293 71.161,18.869 71.731,19.396 L71.997,19.639 C72.256,19.868 72.278,20.262 72.049,20.519 C71.819,20.775 71.423,20.798 71.167,20.571 L70.881,20.310 C70.434,19.898 70.156,19.656 69.759,19.638 L71.444,26.987 C72.519,26.895 73.184,27.490 73.777,28.038 C73.948,28.196 74.126,28.362 74.326,28.519 C74.596,28.733 74.641,29.125 74.426,29.395 C74.212,29.664 73.818,29.710 73.548,29.495 C73.323,29.316 73.120,29.131 72.927,28.952 C72.442,28.503 72.134,28.262 71.729,28.232 L73.693,36.797 C74.906,36.638 75.635,37.303 76.288,37.905 C76.871,38.444 77.478,38.991 78.542,39.183 L68.888,3.079 ZM78.750,40.470 C77.053,40.299 76.128,39.457 75.438,38.819 C74.716,38.153 74.352,37.821 73.423,38.132 C69.537,39.442 63.376,40.507 59.687,40.507 C57.578,40.507 56.521,39.532 55.750,38.819 C55.029,38.153 54.663,37.821 53.735,38.132 C49.850,39.442 43.689,40.507 40.000,40.507 C37.890,40.507 36.834,39.532 36.063,38.819 C35.341,38.153 34.978,37.821 34.047,38.132 C30.162,39.442 24.001,40.507 20.313,40.507 C20.313,40.507 20.313,40.507 20.313,40.507 C20.313,40.507 20.312,40.507 20.312,40.507 C20.312,40.507 20.312,40.507 20.312,40.507 C20.294,40.507 20.279,40.504 20.261,40.504 C20.250,40.503 20.240,40.503 20.230,40.502 C20.230,40.502 20.230,40.502 20.230,40.502 C18.177,40.476 17.136,39.522 16.376,38.819 C15.653,38.153 15.292,37.821 14.360,38.132 C10.678,39.373 4.978,40.383 1.249,40.487 L1.249,41.733 C4.825,41.626 10.448,40.627 13.959,39.444 C15.593,38.889 16.461,39.692 17.225,40.398 C17.946,41.065 18.692,41.754 20.312,41.754 C20.312,41.754 20.312,41.754 20.312,41.754 C20.312,41.754 20.312,41.754 20.312,41.754 C23.826,41.754 29.933,40.696 33.647,39.444 C35.282,38.889 36.149,39.692 36.912,40.398 C37.634,41.065 38.380,41.754 40.000,41.754 C43.514,41.754 49.621,40.696 53.335,39.444 C54.969,38.889 55.836,39.692 56.600,40.398 C57.322,41.065 58.066,41.754 59.687,41.754 C59.687,41.754 59.687,41.754 59.687,41.754 C59.687,41.754 59.687,41.754 59.687,41.754 C63.202,41.754 69.309,40.696 73.022,39.444 C74.658,38.889 75.523,39.692 76.288,40.398 C76.909,40.972 77.550,41.560 78.750,41.713 L78.750,40.470 Z"/>
</svg>