<svg 
 xmlns="http://www.w3.org/2000/svg"
 xmlns:xlink="http://www.w3.org/1999/xlink"
 width="62px" height="56px">
<defs>
<linearGradient id="PSgrad_0" x1="0%" x2="100%" y1="0%" y2="0%">
  <stop offset="0%" stop-color="rgb(0,80,131)" stop-opacity="1" />
  <stop offset="100%" stop-color="rgb(34,185,119)" stop-opacity="1" />
</linearGradient>

</defs>
<path fill-rule="evenodd"  fill="rgb(0, 0, 0)"
 d="M61.037,48.291 C58.500,48.291 57.345,49.477 55.596,51.272 C53.652,53.267 50.991,56.000 46.018,56.000 C41.046,56.000 38.384,53.267 36.441,51.272 C34.692,49.477 33.536,48.291 30.999,48.291 C28.462,48.291 27.307,49.477 25.558,51.272 C23.615,53.267 20.954,56.000 15.981,56.000 C11.009,56.000 8.347,53.267 6.404,51.272 C4.655,49.477 3.499,48.291 0.963,48.291 C0.431,48.291 -0.000,47.859 -0.000,47.327 L-0.000,19.520 C-0.000,18.988 0.431,18.556 0.963,18.556 C1.494,18.556 1.926,18.987 1.926,19.520 L1.926,42.545 C6.286,42.870 8.726,45.374 10.540,47.236 C11.946,48.680 12.969,49.729 14.634,50.085 L14.634,42.134 C14.634,41.602 15.065,41.170 15.596,41.170 C16.128,41.170 16.559,41.602 16.559,42.134 L16.559,50.195 C18.704,50.025 19.812,48.890 21.422,47.236 C23.366,45.241 26.027,42.509 31.000,42.509 C35.972,42.509 38.634,45.241 40.577,47.236 C42.187,48.890 43.296,50.025 45.441,50.195 L45.441,26.715 C45.441,26.183 45.872,25.752 46.404,25.752 C46.936,25.752 47.367,26.183 47.367,26.715 L47.367,50.085 C49.031,49.728 50.054,48.679 51.460,47.236 L51.460,47.236 C53.274,45.374 55.714,42.870 60.075,42.545 L60.075,1.968 C56.534,2.279 54.580,4.285 52.839,6.072 C51.245,7.708 49.836,9.153 47.367,9.536 L47.367,21.575 C47.367,22.108 46.935,22.539 46.404,22.539 C45.872,22.539 45.441,22.108 45.441,21.575 L45.441,9.619 C42.478,9.439 40.951,7.872 39.198,6.073 C37.631,4.463 35.854,2.640 32.880,2.092 C32.357,1.996 32.011,1.494 32.107,0.970 C32.203,0.447 32.705,0.101 33.228,0.197 C36.805,0.855 38.896,3.002 40.577,4.727 C42.326,6.523 43.481,7.709 46.018,7.709 C48.555,7.709 49.711,6.523 51.460,4.728 C53.403,2.732 56.065,-0.000 61.037,-0.000 C61.569,-0.000 62.000,0.431 62.000,0.964 L62.000,47.327 C62.000,47.859 61.569,48.291 61.037,48.291 ZM60.074,44.477 C56.534,44.788 54.579,46.795 52.838,48.582 L52.838,48.582 C50.976,50.494 49.367,52.145 46.018,52.145 C42.669,52.145 41.061,50.494 39.198,48.582 C37.305,46.639 35.160,44.436 30.999,44.436 C26.839,44.436 24.693,46.639 22.801,48.582 C20.938,50.494 19.330,52.145 15.981,52.145 C12.632,52.145 11.024,50.494 9.161,48.582 C7.420,46.794 5.465,44.788 1.925,44.477 L1.925,46.413 C4.638,46.700 6.108,48.208 7.782,49.927 C9.675,51.870 11.820,54.073 15.981,54.073 C20.141,54.073 22.287,51.870 24.180,49.927 C26.042,48.015 27.651,46.363 30.999,46.363 C34.348,46.363 35.957,48.015 37.819,49.927 C39.712,51.870 41.858,54.073 46.018,54.073 C50.179,54.073 52.324,51.870 54.217,49.927 C55.892,48.208 57.361,46.699 60.074,46.412 L60.074,44.477 ZM29.120,2.092 C26.145,2.639 24.368,4.463 22.801,6.073 C21.049,7.871 19.521,9.439 16.559,9.619 L16.559,36.994 C16.559,37.526 16.128,37.958 15.596,37.958 C15.065,37.958 14.634,37.526 14.634,36.994 L14.634,9.536 C12.163,9.153 10.755,7.709 9.161,6.073 C7.420,4.285 5.465,2.279 1.925,1.968 L1.925,13.352 C1.925,13.884 1.494,14.316 0.963,14.316 C0.431,14.316 -0.000,13.884 -0.000,13.352 L-0.000,0.964 C-0.000,0.431 0.431,-0.000 0.963,-0.000 C5.935,-0.000 8.597,2.732 10.540,4.727 C12.289,6.523 13.444,7.709 15.981,7.709 C18.518,7.709 19.673,6.523 21.422,4.727 C23.103,3.002 25.194,0.854 28.772,0.196 C29.295,0.101 29.797,0.447 29.893,0.970 C29.989,1.493 29.643,1.996 29.120,2.092 Z"/>
<path fill="url(#PSgrad_0)"
 d="M61.037,48.291 C58.500,48.291 57.345,49.477 55.596,51.272 C53.652,53.267 50.991,56.000 46.018,56.000 C41.046,56.000 38.384,53.267 36.441,51.272 C34.692,49.477 33.536,48.291 30.999,48.291 C28.462,48.291 27.307,49.477 25.558,51.272 C23.615,53.267 20.954,56.000 15.981,56.000 C11.009,56.000 8.347,53.267 6.404,51.272 C4.655,49.477 3.499,48.291 0.963,48.291 C0.431,48.291 -0.000,47.859 -0.000,47.327 L-0.000,19.520 C-0.000,18.988 0.431,18.556 0.963,18.556 C1.494,18.556 1.926,18.987 1.926,19.520 L1.926,42.545 C6.286,42.870 8.726,45.374 10.540,47.236 C11.946,48.680 12.969,49.729 14.634,50.085 L14.634,42.134 C14.634,41.602 15.065,41.170 15.596,41.170 C16.128,41.170 16.559,41.602 16.559,42.134 L16.559,50.195 C18.704,50.025 19.812,48.890 21.422,47.236 C23.366,45.241 26.027,42.509 31.000,42.509 C35.972,42.509 38.634,45.241 40.577,47.236 C42.187,48.890 43.296,50.025 45.441,50.195 L45.441,26.715 C45.441,26.183 45.872,25.752 46.404,25.752 C46.936,25.752 47.367,26.183 47.367,26.715 L47.367,50.085 C49.031,49.728 50.054,48.679 51.460,47.236 L51.460,47.236 C53.274,45.374 55.714,42.870 60.075,42.545 L60.075,1.968 C56.534,2.279 54.580,4.285 52.839,6.072 C51.245,7.708 49.836,9.153 47.367,9.536 L47.367,21.575 C47.367,22.108 46.935,22.539 46.404,22.539 C45.872,22.539 45.441,22.108 45.441,21.575 L45.441,9.619 C42.478,9.439 40.951,7.872 39.198,6.073 C37.631,4.463 35.854,2.640 32.880,2.092 C32.357,1.996 32.011,1.494 32.107,0.970 C32.203,0.447 32.705,0.101 33.228,0.197 C36.805,0.855 38.896,3.002 40.577,4.727 C42.326,6.523 43.481,7.709 46.018,7.709 C48.555,7.709 49.711,6.523 51.460,4.728 C53.403,2.732 56.065,-0.000 61.037,-0.000 C61.569,-0.000 62.000,0.431 62.000,0.964 L62.000,47.327 C62.000,47.859 61.569,48.291 61.037,48.291 ZM60.074,44.477 C56.534,44.788 54.579,46.795 52.838,48.582 L52.838,48.582 C50.976,50.494 49.367,52.145 46.018,52.145 C42.669,52.145 41.061,50.494 39.198,48.582 C37.305,46.639 35.160,44.436 30.999,44.436 C26.839,44.436 24.693,46.639 22.801,48.582 C20.938,50.494 19.330,52.145 15.981,52.145 C12.632,52.145 11.024,50.494 9.161,48.582 C7.420,46.794 5.465,44.788 1.925,44.477 L1.925,46.413 C4.638,46.700 6.108,48.208 7.782,49.927 C9.675,51.870 11.820,54.073 15.981,54.073 C20.141,54.073 22.287,51.870 24.180,49.927 C26.042,48.015 27.651,46.363 30.999,46.363 C34.348,46.363 35.957,48.015 37.819,49.927 C39.712,51.870 41.858,54.073 46.018,54.073 C50.179,54.073 52.324,51.870 54.217,49.927 C55.892,48.208 57.361,46.699 60.074,46.412 L60.074,44.477 ZM29.120,2.092 C26.145,2.639 24.368,4.463 22.801,6.073 C21.049,7.871 19.521,9.439 16.559,9.619 L16.559,36.994 C16.559,37.526 16.128,37.958 15.596,37.958 C15.065,37.958 14.634,37.526 14.634,36.994 L14.634,9.536 C12.163,9.153 10.755,7.709 9.161,6.073 C7.420,4.285 5.465,2.279 1.925,1.968 L1.925,13.352 C1.925,13.884 1.494,14.316 0.963,14.316 C0.431,14.316 -0.000,13.884 -0.000,13.352 L-0.000,0.964 C-0.000,0.431 0.431,-0.000 0.963,-0.000 C5.935,-0.000 8.597,2.732 10.540,4.727 C12.289,6.523 13.444,7.709 15.981,7.709 C18.518,7.709 19.673,6.523 21.422,4.727 C23.103,3.002 25.194,0.854 28.772,0.196 C29.295,0.101 29.797,0.447 29.893,0.970 C29.989,1.493 29.643,1.996 29.120,2.092 Z"/>
</svg>