<svg 
 xmlns="http://www.w3.org/2000/svg"
 xmlns:xlink="http://www.w3.org/1999/xlink"
 width="52px" height="57px">
<defs>
<linearGradient id="PSgrad_0" x1="0%" x2="100%" y1="0%" y2="0%">
  <stop offset="0%" stop-color="rgb(0,80,131)" stop-opacity="1" />
  <stop offset="100%" stop-color="rgb(34,185,119)" stop-opacity="1" />
</linearGradient>

</defs>
<path fill-rule="evenodd"  fill="rgb(0, 0, 0)"
 d="M40.506,49.022 C34.881,54.159 28.358,57.000 26.000,57.000 C23.641,57.000 17.119,54.159 11.494,49.022 C6.250,44.234 -0.000,35.873 -0.000,23.233 L-0.000,10.943 C-0.000,10.435 0.348,9.992 0.847,9.865 C9.544,7.644 17.592,4.463 25.448,0.140 C25.791,-0.049 26.209,-0.049 26.551,0.140 C34.188,4.342 42.696,7.705 51.153,9.865 C51.652,9.992 52.000,10.435 52.000,10.943 L52.000,23.233 C52.000,35.873 45.749,44.234 40.506,49.022 ZM49.739,11.800 C41.580,9.642 33.404,6.399 26.000,2.385 C18.403,6.510 10.622,9.596 2.261,11.800 L2.261,23.233 C2.261,35.069 8.118,42.903 13.031,47.390 C16.146,50.235 19.173,52.031 21.164,53.036 C23.687,54.311 25.439,54.773 26.000,54.773 C26.561,54.773 28.312,54.310 30.835,53.036 C32.826,52.031 35.854,50.235 38.969,47.390 C43.882,42.903 49.739,35.069 49.739,23.233 L49.739,11.800 ZM38.274,45.739 C35.994,47.898 33.360,49.800 30.659,51.240 C30.175,51.498 27.686,52.799 26.205,53.068 C26.137,53.081 26.068,53.087 26.000,53.087 C25.931,53.087 25.862,53.081 25.794,53.068 C24.314,52.799 21.824,51.498 21.340,51.240 C18.639,49.800 16.005,47.897 13.725,45.739 C10.536,42.720 8.087,39.277 6.444,35.504 C4.793,31.712 3.956,27.583 3.956,23.233 L3.956,13.914 C3.956,13.418 4.289,12.982 4.773,12.845 C11.923,10.808 18.886,8.023 25.469,4.568 C25.801,4.393 26.199,4.393 26.532,4.567 C33.105,8.009 40.069,10.793 47.228,12.843 C47.711,12.981 48.043,13.417 48.043,13.912 L48.043,23.233 C48.043,27.583 47.206,31.712 45.555,35.504 C43.912,39.277 41.463,42.721 38.274,45.739 ZM45.782,23.233 L45.783,23.233 L45.783,14.744 C38.953,12.733 32.305,10.066 26.002,6.809 C19.689,10.079 13.040,12.747 6.217,14.748 L6.217,23.233 C6.217,31.402 9.271,38.434 15.292,44.133 C17.428,46.155 19.892,47.935 22.417,49.282 C23.566,49.894 25.118,50.609 26.000,50.833 C26.882,50.609 28.434,49.895 29.583,49.282 C32.108,47.935 34.572,46.155 36.708,44.133 C42.729,38.434 45.782,31.402 45.782,23.233 ZM29.455,26.329 L29.455,26.457 L30.368,26.971 C30.721,27.169 30.938,27.538 30.938,27.937 L30.938,30.281 C30.938,30.698 30.702,31.080 30.325,31.271 L29.460,31.710 L29.461,32.098 L30.613,33.249 C30.821,33.457 30.938,33.738 30.938,34.030 L30.938,35.349 C30.938,35.648 30.816,35.934 30.599,36.144 L29.643,37.067 L30.486,37.690 C30.770,37.900 30.938,38.230 30.938,38.580 L30.938,39.688 C30.938,40.045 30.764,40.380 30.472,40.589 L27.380,42.801 C27.186,42.939 26.953,43.013 26.716,43.013 C26.664,43.013 26.611,43.009 26.559,43.002 L24.894,42.773 C24.650,42.739 24.425,42.628 24.251,42.457 L22.583,40.814 C22.371,40.605 22.252,40.322 22.252,40.027 L22.252,26.189 C21.478,25.803 20.774,25.299 20.153,24.686 C16.928,21.511 16.928,16.344 20.153,13.168 C21.714,11.630 23.791,10.783 26.000,10.783 C28.209,10.783 30.286,11.630 31.848,13.168 C35.072,16.344 35.072,21.511 31.848,24.686 C31.145,25.378 30.343,25.929 29.455,26.329 ZM30.249,14.742 C29.114,13.625 27.605,13.009 26.000,13.009 C24.395,13.009 22.886,13.625 21.751,14.743 C19.408,17.050 19.408,20.804 21.751,23.112 C22.340,23.691 23.028,24.136 23.796,24.434 C24.228,24.601 24.513,25.012 24.513,25.470 L24.513,39.565 L25.582,40.619 L26.421,40.735 L28.666,39.128 L27.647,38.376 C27.363,38.166 27.195,37.836 27.195,37.486 L27.195,36.779 C27.195,36.480 27.317,36.194 27.534,35.984 L28.677,34.881 L28.677,34.487 L27.525,33.336 C27.317,33.128 27.200,32.847 27.200,32.555 L27.199,31.032 C27.198,30.615 27.435,30.233 27.811,30.041 L28.677,29.602 L28.677,28.583 L27.765,28.070 C27.413,27.872 27.196,27.504 27.195,27.105 L27.193,25.579 C27.193,25.357 27.259,25.141 27.384,24.957 C27.522,24.755 27.723,24.602 27.957,24.524 C28.824,24.230 29.595,23.755 30.249,23.112 C32.592,20.804 32.592,17.050 30.249,14.742 ZM26.000,18.463 C25.063,18.463 24.304,17.715 24.304,16.793 C24.304,15.870 25.063,15.123 26.000,15.123 C26.936,15.123 27.696,15.870 27.696,16.793 C27.696,17.715 26.936,18.463 26.000,18.463 ZM18.821,42.043 C20.045,43.120 21.356,44.096 22.718,44.942 C23.246,45.270 23.404,45.958 23.070,46.478 C22.855,46.813 22.488,46.997 22.113,46.997 C21.907,46.997 21.698,46.942 21.511,46.825 C20.043,45.913 18.631,44.862 17.314,43.703 C16.849,43.293 16.809,42.589 17.225,42.131 C17.641,41.672 18.356,41.633 18.821,42.043 ZM15.781,41.747 C15.474,41.747 15.168,41.625 14.945,41.384 L14.923,41.361 C14.505,40.904 14.543,40.200 15.007,39.788 C15.469,39.379 16.179,39.414 16.598,39.865 L16.620,39.889 C17.038,40.346 17.000,41.050 16.536,41.461 C16.320,41.653 16.050,41.747 15.781,41.747 Z"/>
<path fill="url(#PSgrad_0)"
 d="M40.506,49.022 C34.881,54.159 28.358,57.000 26.000,57.000 C23.641,57.000 17.119,54.159 11.494,49.022 C6.250,44.234 -0.000,35.873 -0.000,23.233 L-0.000,10.943 C-0.000,10.435 0.348,9.992 0.847,9.865 C9.544,7.644 17.592,4.463 25.448,0.140 C25.791,-0.049 26.209,-0.049 26.551,0.140 C34.188,4.342 42.696,7.705 51.153,9.865 C51.652,9.992 52.000,10.435 52.000,10.943 L52.000,23.233 C52.000,35.873 45.749,44.234 40.506,49.022 ZM49.739,11.800 C41.580,9.642 33.404,6.399 26.000,2.385 C18.403,6.510 10.622,9.596 2.261,11.800 L2.261,23.233 C2.261,35.069 8.118,42.903 13.031,47.390 C16.146,50.235 19.173,52.031 21.164,53.036 C23.687,54.311 25.439,54.773 26.000,54.773 C26.561,54.773 28.312,54.310 30.835,53.036 C32.826,52.031 35.854,50.235 38.969,47.390 C43.882,42.903 49.739,35.069 49.739,23.233 L49.739,11.800 ZM38.274,45.739 C35.994,47.898 33.360,49.800 30.659,51.240 C30.175,51.498 27.686,52.799 26.205,53.068 C26.137,53.081 26.068,53.087 26.000,53.087 C25.931,53.087 25.862,53.081 25.794,53.068 C24.314,52.799 21.824,51.498 21.340,51.240 C18.639,49.800 16.005,47.897 13.725,45.739 C10.536,42.720 8.087,39.277 6.444,35.504 C4.793,31.712 3.956,27.583 3.956,23.233 L3.956,13.914 C3.956,13.418 4.289,12.982 4.773,12.845 C11.923,10.808 18.886,8.023 25.469,4.568 C25.801,4.393 26.199,4.393 26.532,4.567 C33.105,8.009 40.069,10.793 47.228,12.843 C47.711,12.981 48.043,13.417 48.043,13.912 L48.043,23.233 C48.043,27.583 47.206,31.712 45.555,35.504 C43.912,39.277 41.463,42.721 38.274,45.739 ZM45.782,23.233 L45.783,23.233 L45.783,14.744 C38.953,12.733 32.305,10.066 26.002,6.809 C19.689,10.079 13.040,12.747 6.217,14.748 L6.217,23.233 C6.217,31.402 9.271,38.434 15.292,44.133 C17.428,46.155 19.892,47.935 22.417,49.282 C23.566,49.894 25.118,50.609 26.000,50.833 C26.882,50.609 28.434,49.895 29.583,49.282 C32.108,47.935 34.572,46.155 36.708,44.133 C42.729,38.434 45.782,31.402 45.782,23.233 ZM29.455,26.329 L29.455,26.457 L30.368,26.971 C30.721,27.169 30.938,27.538 30.938,27.937 L30.938,30.281 C30.938,30.698 30.702,31.080 30.325,31.271 L29.460,31.710 L29.461,32.098 L30.613,33.249 C30.821,33.457 30.938,33.738 30.938,34.030 L30.938,35.349 C30.938,35.648 30.816,35.934 30.599,36.144 L29.643,37.067 L30.486,37.690 C30.770,37.900 30.938,38.230 30.938,38.580 L30.938,39.688 C30.938,40.045 30.764,40.380 30.472,40.589 L27.380,42.801 C27.186,42.939 26.953,43.013 26.716,43.013 C26.664,43.013 26.611,43.009 26.559,43.002 L24.894,42.773 C24.650,42.739 24.425,42.628 24.251,42.457 L22.583,40.814 C22.371,40.605 22.252,40.322 22.252,40.027 L22.252,26.189 C21.478,25.803 20.774,25.299 20.153,24.686 C16.928,21.511 16.928,16.344 20.153,13.168 C21.714,11.630 23.791,10.783 26.000,10.783 C28.209,10.783 30.286,11.630 31.848,13.168 C35.072,16.344 35.072,21.511 31.848,24.686 C31.145,25.378 30.343,25.929 29.455,26.329 ZM30.249,14.742 C29.114,13.625 27.605,13.009 26.000,13.009 C24.395,13.009 22.886,13.625 21.751,14.743 C19.408,17.050 19.408,20.804 21.751,23.112 C22.340,23.691 23.028,24.136 23.796,24.434 C24.228,24.601 24.513,25.012 24.513,25.470 L24.513,39.565 L25.582,40.619 L26.421,40.735 L28.666,39.128 L27.647,38.376 C27.363,38.166 27.195,37.836 27.195,37.486 L27.195,36.779 C27.195,36.480 27.317,36.194 27.534,35.984 L28.677,34.881 L28.677,34.487 L27.525,33.336 C27.317,33.128 27.200,32.847 27.200,32.555 L27.199,31.032 C27.198,30.615 27.435,30.233 27.811,30.041 L28.677,29.602 L28.677,28.583 L27.765,28.070 C27.413,27.872 27.196,27.504 27.195,27.105 L27.193,25.579 C27.193,25.357 27.259,25.141 27.384,24.957 C27.522,24.755 27.723,24.602 27.957,24.524 C28.824,24.230 29.595,23.755 30.249,23.112 C32.592,20.804 32.592,17.050 30.249,14.742 ZM26.000,18.463 C25.063,18.463 24.304,17.715 24.304,16.793 C24.304,15.870 25.063,15.123 26.000,15.123 C26.936,15.123 27.696,15.870 27.696,16.793 C27.696,17.715 26.936,18.463 26.000,18.463 ZM18.821,42.043 C20.045,43.120 21.356,44.096 22.718,44.942 C23.246,45.270 23.404,45.958 23.070,46.478 C22.855,46.813 22.488,46.997 22.113,46.997 C21.907,46.997 21.698,46.942 21.511,46.825 C20.043,45.913 18.631,44.862 17.314,43.703 C16.849,43.293 16.809,42.589 17.225,42.131 C17.641,41.672 18.356,41.633 18.821,42.043 ZM15.781,41.747 C15.474,41.747 15.168,41.625 14.945,41.384 L14.923,41.361 C14.505,40.904 14.543,40.200 15.007,39.788 C15.469,39.379 16.179,39.414 16.598,39.865 L16.620,39.889 C17.038,40.346 17.000,41.050 16.536,41.461 C16.320,41.653 16.050,41.747 15.781,41.747 Z"/>
</svg>