<svg 
 xmlns="http://www.w3.org/2000/svg"
 xmlns:xlink="http://www.w3.org/1999/xlink"
 width="65px" height="57px">
<defs>
<linearGradient id="PSgrad_0" x1="0%" x2="100%" y1="0%" y2="0%">
  <stop offset="0%" stop-color="rgb(0,80,131)" stop-opacity="1" />
  <stop offset="100%" stop-color="rgb(34,185,119)" stop-opacity="1" />
</linearGradient>

</defs>
<path fill-rule="evenodd"  fill="rgb(0, 0, 0)"
 d="M25.824,57.000 C25.461,57.000 25.166,56.700 25.166,56.330 C25.166,55.960 25.461,55.660 25.824,55.660 C35.134,55.660 41.622,53.170 41.622,50.935 C41.622,50.565 41.917,50.265 42.281,50.265 C42.644,50.265 42.939,50.565 42.939,50.935 C42.940,54.874 34.121,57.000 25.824,57.000 ZM61.464,53.346 C61.405,53.346 61.346,53.338 61.286,53.321 C58.925,52.651 56.411,52.235 54.192,51.868 C49.743,51.132 46.529,50.600 46.126,48.504 C45.889,47.269 46.754,46.094 47.591,44.958 C48.299,43.996 49.032,43.001 48.843,42.278 C48.715,41.790 48.152,41.324 47.170,40.892 C42.644,38.901 32.162,39.413 29.810,39.557 L30.136,43.839 C30.164,44.208 29.893,44.531 29.530,44.559 C29.170,44.589 28.851,44.312 28.823,43.942 L27.307,24.020 L19.349,24.020 L17.839,43.942 C17.811,44.312 17.496,44.591 17.132,44.559 C16.769,44.531 16.497,44.208 16.525,43.840 L16.797,40.254 C15.889,40.182 13.861,39.906 13.136,38.852 C12.832,38.411 12.784,37.994 12.748,37.690 C12.705,37.323 12.674,37.057 10.785,36.809 C7.482,36.375 0.767,36.809 0.700,36.813 C0.337,36.839 0.023,36.557 0.000,36.188 C-0.023,35.818 0.252,35.500 0.615,35.476 C0.896,35.458 7.526,35.030 10.953,35.480 C13.427,35.805 13.925,36.401 14.057,37.533 C14.086,37.779 14.107,37.927 14.215,38.084 C14.535,38.548 15.902,38.837 16.899,38.918 L18.028,24.020 L16.249,24.020 C15.886,24.020 15.591,23.720 15.591,23.350 C15.591,22.980 15.886,22.680 16.249,22.680 L17.347,22.680 L17.347,12.378 C17.347,6.334 22.182,1.417 28.125,1.417 L37.331,1.417 L37.331,0.670 C37.331,0.300 37.626,-0.000 37.989,-0.000 C38.353,-0.000 38.648,0.300 38.648,0.670 L38.648,1.417 L54.020,1.417 L54.020,0.670 C54.020,0.300 54.315,-0.000 54.679,-0.000 C55.042,-0.000 55.338,0.300 55.338,0.670 L55.338,1.417 L64.341,1.417 C64.705,1.417 65.000,1.717 65.000,2.087 C65.000,2.456 64.705,2.757 64.341,2.757 L55.338,2.757 L55.338,11.708 L64.341,11.708 C64.705,11.708 65.000,12.008 65.000,12.378 C65.000,12.748 64.705,13.048 64.341,13.048 L55.338,13.048 L55.338,13.416 C55.338,13.785 55.042,14.086 54.679,14.086 C54.315,14.086 54.020,13.785 54.020,13.416 L54.020,13.048 L38.648,13.048 L38.648,13.416 C38.648,13.785 38.353,14.086 37.989,14.086 C37.625,14.086 37.330,13.785 37.330,13.416 L37.330,13.048 L33.530,13.048 C31.142,13.048 29.199,15.024 29.199,17.453 L29.199,22.680 L29.864,22.680 C30.228,22.680 30.523,22.980 30.523,23.350 C30.523,23.720 30.228,24.020 29.864,24.020 L28.629,24.020 L29.709,38.220 C32.116,38.066 42.828,37.522 47.694,39.662 C49.084,40.273 49.877,41.017 50.117,41.934 C50.470,43.285 49.543,44.544 48.646,45.762 C47.981,46.663 47.295,47.596 47.420,48.247 C47.647,49.428 51.082,49.996 54.404,50.546 C56.657,50.918 59.210,51.340 61.641,52.031 C61.992,52.130 62.196,52.500 62.099,52.856 C62.017,53.152 61.752,53.346 61.464,53.346 ZM18.665,22.680 L27.881,22.680 L27.881,17.453 C27.881,14.285 30.415,11.708 33.530,11.708 L37.330,11.708 L37.330,2.757 L28.124,2.757 C22.908,2.757 18.665,7.073 18.665,12.378 L18.665,22.680 ZM38.648,11.708 L54.020,11.708 L54.020,2.757 L38.648,2.757 L38.648,11.708 ZM23.441,53.266 C15.650,53.266 7.369,51.260 7.369,47.543 C7.369,47.173 7.664,46.872 8.028,46.872 C8.391,46.872 8.686,47.173 8.686,47.543 C8.686,49.616 14.746,51.925 23.441,51.925 C23.804,51.925 24.100,52.226 24.100,52.596 C24.100,52.965 23.804,53.266 23.441,53.266 ZM23.441,50.055 C17.527,50.055 11.541,48.559 11.541,45.700 C11.541,45.330 11.836,45.030 12.200,45.030 C12.564,45.030 12.859,45.330 12.859,45.700 C12.859,46.929 16.981,48.715 23.441,48.715 C29.900,48.715 34.023,46.929 34.023,45.700 C34.023,45.330 34.318,45.030 34.682,45.030 C35.045,45.030 35.340,45.330 35.340,45.700 C35.340,48.559 29.354,50.055 23.441,50.055 ZM25.108,41.483 C24.754,41.483 24.461,41.197 24.450,40.834 L24.210,33.066 C24.198,32.696 24.484,32.387 24.847,32.375 C25.215,32.353 25.515,32.654 25.527,33.024 L25.767,40.792 C25.778,41.162 25.493,41.471 25.129,41.483 C25.122,41.483 25.115,41.483 25.108,41.483 ZM20.882,35.474 C20.868,35.474 20.855,35.474 20.841,35.473 C20.478,35.451 20.202,35.133 20.223,34.764 L20.752,25.872 C20.774,25.502 21.086,25.221 21.449,25.244 C21.812,25.266 22.089,25.584 22.067,25.953 L21.539,34.845 C21.517,35.200 21.227,35.474 20.882,35.474 ZM14.491,33.715 C14.387,33.715 14.281,33.690 14.183,33.637 C13.861,33.463 13.739,33.058 13.910,32.731 L14.727,31.167 C14.897,30.841 15.295,30.717 15.618,30.890 C15.939,31.064 16.061,31.469 15.890,31.796 L15.074,33.360 C14.955,33.586 14.727,33.715 14.491,33.715 ZM32.074,31.517 C31.872,31.517 31.673,31.423 31.543,31.245 L30.871,30.316 C30.655,30.018 30.717,29.599 31.010,29.379 C31.303,29.161 31.716,29.224 31.931,29.521 L32.604,30.449 C32.820,30.748 32.757,31.167 32.464,31.387 C32.347,31.474 32.210,31.517 32.074,31.517 ZM11.226,29.123 C10.995,29.123 10.770,28.999 10.650,28.779 C10.473,28.456 10.587,28.048 10.904,27.868 L14.171,26.016 C14.490,25.836 14.891,25.952 15.067,26.275 C15.245,26.598 15.130,27.006 14.813,27.187 L11.546,29.038 C11.445,29.096 11.334,29.123 11.226,29.123 ZM30.968,26.978 C30.837,26.978 30.705,26.939 30.589,26.856 L29.629,26.167 C29.332,25.953 29.260,25.535 29.470,25.233 C29.679,24.931 30.090,24.858 30.388,25.072 L31.349,25.761 C31.646,25.974 31.717,26.392 31.507,26.694 C31.379,26.879 31.175,26.978 30.968,26.978 ZM36.205,26.927 C36.153,26.927 36.100,26.920 36.047,26.907 L33.117,26.172 C32.764,26.083 32.548,25.720 32.635,25.361 C32.722,25.002 33.079,24.783 33.432,24.871 L36.363,25.606 C36.716,25.695 36.932,26.058 36.845,26.417 C36.771,26.723 36.502,26.927 36.205,26.927 ZM12.858,24.873 C12.552,24.873 12.278,24.655 12.214,24.338 C12.140,23.975 12.370,23.621 12.726,23.546 L14.359,23.204 C14.716,23.128 15.064,23.363 15.137,23.726 C15.211,24.088 14.981,24.443 14.625,24.517 L12.992,24.859 C12.947,24.868 12.902,24.873 12.858,24.873 Z"/>
<path fill="url(#PSgrad_0)"
 d="M25.824,57.000 C25.461,57.000 25.166,56.700 25.166,56.330 C25.166,55.960 25.461,55.660 25.824,55.660 C35.134,55.660 41.622,53.170 41.622,50.935 C41.622,50.565 41.917,50.265 42.281,50.265 C42.644,50.265 42.939,50.565 42.939,50.935 C42.940,54.874 34.121,57.000 25.824,57.000 ZM61.464,53.346 C61.405,53.346 61.346,53.338 61.286,53.321 C58.925,52.651 56.411,52.235 54.192,51.868 C49.743,51.132 46.529,50.600 46.126,48.504 C45.889,47.269 46.754,46.094 47.591,44.958 C48.299,43.996 49.032,43.001 48.843,42.278 C48.715,41.790 48.152,41.324 47.170,40.892 C42.644,38.901 32.162,39.413 29.810,39.557 L30.136,43.839 C30.164,44.208 29.893,44.531 29.530,44.559 C29.170,44.589 28.851,44.312 28.823,43.942 L27.307,24.020 L19.349,24.020 L17.839,43.942 C17.811,44.312 17.496,44.591 17.132,44.559 C16.769,44.531 16.497,44.208 16.525,43.840 L16.797,40.254 C15.889,40.182 13.861,39.906 13.136,38.852 C12.832,38.411 12.784,37.994 12.748,37.690 C12.705,37.323 12.674,37.057 10.785,36.809 C7.482,36.375 0.767,36.809 0.700,36.813 C0.337,36.839 0.023,36.557 0.000,36.188 C-0.023,35.818 0.252,35.500 0.615,35.476 C0.896,35.458 7.526,35.030 10.953,35.480 C13.427,35.805 13.925,36.401 14.057,37.533 C14.086,37.779 14.107,37.927 14.215,38.084 C14.535,38.548 15.902,38.837 16.899,38.918 L18.028,24.020 L16.249,24.020 C15.886,24.020 15.591,23.720 15.591,23.350 C15.591,22.980 15.886,22.680 16.249,22.680 L17.347,22.680 L17.347,12.378 C17.347,6.334 22.182,1.417 28.125,1.417 L37.331,1.417 L37.331,0.670 C37.331,0.300 37.626,-0.000 37.989,-0.000 C38.353,-0.000 38.648,0.300 38.648,0.670 L38.648,1.417 L54.020,1.417 L54.020,0.670 C54.020,0.300 54.315,-0.000 54.679,-0.000 C55.042,-0.000 55.338,0.300 55.338,0.670 L55.338,1.417 L64.341,1.417 C64.705,1.417 65.000,1.717 65.000,2.087 C65.000,2.456 64.705,2.757 64.341,2.757 L55.338,2.757 L55.338,11.708 L64.341,11.708 C64.705,11.708 65.000,12.008 65.000,12.378 C65.000,12.748 64.705,13.048 64.341,13.048 L55.338,13.048 L55.338,13.416 C55.338,13.785 55.042,14.086 54.679,14.086 C54.315,14.086 54.020,13.785 54.020,13.416 L54.020,13.048 L38.648,13.048 L38.648,13.416 C38.648,13.785 38.353,14.086 37.989,14.086 C37.625,14.086 37.330,13.785 37.330,13.416 L37.330,13.048 L33.530,13.048 C31.142,13.048 29.199,15.024 29.199,17.453 L29.199,22.680 L29.864,22.680 C30.228,22.680 30.523,22.980 30.523,23.350 C30.523,23.720 30.228,24.020 29.864,24.020 L28.629,24.020 L29.709,38.220 C32.116,38.066 42.828,37.522 47.694,39.662 C49.084,40.273 49.877,41.017 50.117,41.934 C50.470,43.285 49.543,44.544 48.646,45.762 C47.981,46.663 47.295,47.596 47.420,48.247 C47.647,49.428 51.082,49.996 54.404,50.546 C56.657,50.918 59.210,51.340 61.641,52.031 C61.992,52.130 62.196,52.500 62.099,52.856 C62.017,53.152 61.752,53.346 61.464,53.346 ZM18.665,22.680 L27.881,22.680 L27.881,17.453 C27.881,14.285 30.415,11.708 33.530,11.708 L37.330,11.708 L37.330,2.757 L28.124,2.757 C22.908,2.757 18.665,7.073 18.665,12.378 L18.665,22.680 ZM38.648,11.708 L54.020,11.708 L54.020,2.757 L38.648,2.757 L38.648,11.708 ZM23.441,53.266 C15.650,53.266 7.369,51.260 7.369,47.543 C7.369,47.173 7.664,46.872 8.028,46.872 C8.391,46.872 8.686,47.173 8.686,47.543 C8.686,49.616 14.746,51.925 23.441,51.925 C23.804,51.925 24.100,52.226 24.100,52.596 C24.100,52.965 23.804,53.266 23.441,53.266 ZM23.441,50.055 C17.527,50.055 11.541,48.559 11.541,45.700 C11.541,45.330 11.836,45.030 12.200,45.030 C12.564,45.030 12.859,45.330 12.859,45.700 C12.859,46.929 16.981,48.715 23.441,48.715 C29.900,48.715 34.023,46.929 34.023,45.700 C34.023,45.330 34.318,45.030 34.682,45.030 C35.045,45.030 35.340,45.330 35.340,45.700 C35.340,48.559 29.354,50.055 23.441,50.055 ZM25.108,41.483 C24.754,41.483 24.461,41.197 24.450,40.834 L24.210,33.066 C24.198,32.696 24.484,32.387 24.847,32.375 C25.215,32.353 25.515,32.654 25.527,33.024 L25.767,40.792 C25.778,41.162 25.493,41.471 25.129,41.483 C25.122,41.483 25.115,41.483 25.108,41.483 ZM20.882,35.474 C20.868,35.474 20.855,35.474 20.841,35.473 C20.478,35.451 20.202,35.133 20.223,34.764 L20.752,25.872 C20.774,25.502 21.086,25.221 21.449,25.244 C21.812,25.266 22.089,25.584 22.067,25.953 L21.539,34.845 C21.517,35.200 21.227,35.474 20.882,35.474 ZM14.491,33.715 C14.387,33.715 14.281,33.690 14.183,33.637 C13.861,33.463 13.739,33.058 13.910,32.731 L14.727,31.167 C14.897,30.841 15.295,30.717 15.618,30.890 C15.939,31.064 16.061,31.469 15.890,31.796 L15.074,33.360 C14.955,33.586 14.727,33.715 14.491,33.715 ZM32.074,31.517 C31.872,31.517 31.673,31.423 31.543,31.245 L30.871,30.316 C30.655,30.018 30.717,29.599 31.010,29.379 C31.303,29.161 31.716,29.224 31.931,29.521 L32.604,30.449 C32.820,30.748 32.757,31.167 32.464,31.387 C32.347,31.474 32.210,31.517 32.074,31.517 ZM11.226,29.123 C10.995,29.123 10.770,28.999 10.650,28.779 C10.473,28.456 10.587,28.048 10.904,27.868 L14.171,26.016 C14.490,25.836 14.891,25.952 15.067,26.275 C15.245,26.598 15.130,27.006 14.813,27.187 L11.546,29.038 C11.445,29.096 11.334,29.123 11.226,29.123 ZM30.968,26.978 C30.837,26.978 30.705,26.939 30.589,26.856 L29.629,26.167 C29.332,25.953 29.260,25.535 29.470,25.233 C29.679,24.931 30.090,24.858 30.388,25.072 L31.349,25.761 C31.646,25.974 31.717,26.392 31.507,26.694 C31.379,26.879 31.175,26.978 30.968,26.978 ZM36.205,26.927 C36.153,26.927 36.100,26.920 36.047,26.907 L33.117,26.172 C32.764,26.083 32.548,25.720 32.635,25.361 C32.722,25.002 33.079,24.783 33.432,24.871 L36.363,25.606 C36.716,25.695 36.932,26.058 36.845,26.417 C36.771,26.723 36.502,26.927 36.205,26.927 ZM12.858,24.873 C12.552,24.873 12.278,24.655 12.214,24.338 C12.140,23.975 12.370,23.621 12.726,23.546 L14.359,23.204 C14.716,23.128 15.064,23.363 15.137,23.726 C15.211,24.088 14.981,24.443 14.625,24.517 L12.992,24.859 C12.947,24.868 12.902,24.873 12.858,24.873 Z"/>
</svg>