<svg 
 xmlns="http://www.w3.org/2000/svg"
 xmlns:xlink="http://www.w3.org/1999/xlink"
 width="58px" height="58px">
<defs>
<linearGradient id="PSgrad_0" x1="0%" x2="100%" y1="0%" y2="0%">
  <stop offset="0%" stop-color="rgb(0,80,131)" stop-opacity="1" />
  <stop offset="100%" stop-color="rgb(34,185,119)" stop-opacity="1" />
</linearGradient>

</defs>
<path fill-rule="evenodd"  fill="rgb(0, 0, 0)"
 d="M57.719,47.581 C56.861,50.508 54.117,52.552 51.044,52.552 C50.392,52.552 49.739,52.460 49.103,52.277 L28.937,46.444 L28.937,56.077 C28.937,56.097 28.935,56.117 28.934,56.137 C28.961,56.138 28.986,56.139 29.013,56.139 C30.114,56.139 30.625,55.777 31.272,55.319 C32.006,54.799 32.920,54.153 34.624,54.153 C36.328,54.153 37.241,54.799 37.976,55.319 C38.622,55.777 39.133,56.139 40.235,56.139 C41.337,56.139 41.847,55.777 42.494,55.319 C43.228,54.799 44.142,54.153 45.846,54.153 C47.549,54.153 48.463,54.799 49.197,55.319 C49.843,55.777 50.354,56.139 51.455,56.139 C52.555,56.139 53.065,55.777 53.711,55.319 C54.445,54.800 55.358,54.153 57.060,54.153 C57.579,54.153 58.000,54.570 58.000,55.084 C58.000,55.598 57.579,56.015 57.060,56.015 C55.960,56.015 55.450,56.376 54.804,56.834 C54.070,57.354 53.157,58.001 51.454,58.001 C49.751,58.001 48.838,57.354 48.104,56.834 C47.457,56.376 46.947,56.015 45.846,56.015 C44.744,56.015 44.233,56.377 43.587,56.834 C42.853,57.354 41.939,58.001 40.235,58.001 C38.531,58.001 37.617,57.354 36.883,56.834 C36.236,56.377 35.725,56.015 34.624,56.015 C33.522,56.015 33.011,56.377 32.364,56.834 C31.630,57.354 30.717,58.001 29.013,58.001 C27.308,58.001 26.395,57.354 25.660,56.834 C25.013,56.377 24.502,56.015 23.400,56.015 C22.299,56.015 21.788,56.377 21.141,56.834 C20.408,57.354 19.494,58.001 17.791,58.001 C16.086,58.001 15.172,57.354 14.437,56.834 C13.790,56.377 13.279,56.015 12.176,56.015 C11.072,56.015 10.560,56.377 9.913,56.835 C9.178,57.354 8.263,58.001 6.558,58.001 C4.852,58.001 3.938,57.354 3.203,56.835 C2.555,56.377 2.043,56.015 0.939,56.015 C0.421,56.015 -0.000,55.598 -0.000,55.084 C-0.000,54.570 0.421,54.153 0.939,54.153 C2.645,54.153 3.559,54.799 4.294,55.319 C4.942,55.777 5.454,56.139 6.558,56.139 C7.662,56.139 8.173,55.777 8.821,55.319 C9.556,54.799 10.471,54.153 12.176,54.153 C13.881,54.153 14.795,54.799 15.529,55.319 C16.177,55.777 16.688,56.139 17.791,56.139 C18.892,56.139 19.402,55.777 20.049,55.319 C20.731,54.837 21.569,54.245 23.050,54.163 L23.050,44.741 L10.022,40.973 C6.342,39.914 4.216,36.084 5.285,32.436 L5.285,32.436 C5.803,30.668 6.985,29.206 8.613,28.319 C8.743,28.249 8.874,28.184 9.006,28.122 C5.963,26.708 4.319,23.263 5.285,19.966 C5.803,18.198 6.985,16.736 8.613,15.849 C8.698,15.803 8.783,15.760 8.869,15.718 L3.971,14.308 C3.472,14.165 3.061,13.838 2.811,13.388 C2.561,12.938 2.503,12.418 2.647,11.924 L5.441,2.387 C5.740,1.368 6.819,0.779 7.847,1.075 L37.732,9.673 C41.265,10.689 43.511,14.184 42.847,17.628 C42.418,19.851 40.941,21.657 38.987,22.579 C42.019,23.999 43.655,27.436 42.690,30.727 C42.130,32.639 40.765,34.174 39.028,35.009 L44.305,36.536 C44.801,36.679 45.087,37.192 44.946,37.685 C44.183,40.337 45.737,43.121 48.409,43.890 L57.086,46.399 C57.570,46.540 57.854,47.032 57.736,47.513 C57.731,47.536 57.725,47.559 57.719,47.581 ZM24.929,54.360 C25.723,54.592 26.276,54.982 26.752,55.319 C26.857,55.393 26.958,55.464 27.058,55.532 L27.058,45.900 L24.929,45.284 L24.929,54.360 ZM7.324,2.864 C7.318,2.862 7.312,2.861 7.306,2.861 C7.279,2.861 7.254,2.879 7.246,2.906 L4.452,12.443 C4.442,12.476 4.461,12.511 4.494,12.520 L6.671,13.146 L9.500,3.490 L7.324,2.864 ZM41.001,17.278 C41.486,14.768 39.819,12.213 37.208,11.461 L11.305,4.009 L8.475,13.665 L34.599,21.181 C35.064,21.315 35.541,21.382 36.016,21.382 C38.446,21.382 40.543,19.656 41.001,17.278 ZM40.886,30.208 C41.666,27.546 40.114,24.751 37.428,23.979 L13.376,17.059 C12.908,16.923 12.430,16.856 11.955,16.856 C11.112,16.856 10.278,17.067 9.518,17.481 C8.330,18.128 7.467,19.195 7.089,20.485 C6.309,23.147 7.861,25.942 10.547,26.714 L34.599,33.634 C35.064,33.768 35.541,33.836 36.016,33.836 C38.258,33.836 40.260,32.344 40.886,30.208 ZM47.884,45.677 C44.527,44.712 42.458,41.424 42.943,38.082 L13.375,29.529 C12.076,29.154 10.706,29.304 9.518,29.951 C8.330,30.598 7.467,31.665 7.089,32.955 C6.309,35.617 7.861,38.412 10.547,39.184 L49.628,50.489 C50.092,50.623 50.569,50.690 51.044,50.690 C52.978,50.690 54.734,49.580 55.581,47.904 L47.884,45.677 ZM32.007,39.017 C31.920,39.017 31.831,39.005 31.743,38.980 L17.714,34.922 C17.216,34.778 16.930,34.261 17.075,33.767 C17.221,33.273 17.742,32.990 18.240,33.134 L32.270,37.192 C32.768,37.337 33.054,37.853 32.908,38.347 C32.789,38.753 32.414,39.017 32.007,39.017 ZM13.968,33.800 C13.881,33.800 13.793,33.787 13.705,33.762 L12.255,33.343 C11.757,33.199 11.471,32.681 11.616,32.188 C11.762,31.694 12.284,31.411 12.781,31.555 L14.231,31.975 C14.729,32.119 15.015,32.636 14.870,33.129 C14.750,33.536 14.375,33.800 13.968,33.800 ZM26.996,25.075 C26.909,25.075 26.821,25.063 26.733,25.038 L17.715,22.443 C17.217,22.300 16.930,21.783 17.075,21.289 C17.219,20.796 17.741,20.511 18.239,20.655 L27.258,23.250 C27.756,23.393 28.042,23.909 27.898,24.403 C27.778,24.811 27.403,25.075 26.996,25.075 ZM13.968,21.327 C13.881,21.327 13.793,21.315 13.705,21.289 L12.256,20.872 C11.758,20.729 11.471,20.213 11.616,19.719 C11.760,19.225 12.281,18.941 12.780,19.084 L14.229,19.501 C14.728,19.644 15.014,20.161 14.870,20.655 C14.750,21.062 14.375,21.327 13.968,21.327 ZM23.990,11.757 C23.903,11.757 23.815,11.745 23.727,11.719 L19.718,10.566 C19.220,10.423 18.933,9.906 19.078,9.412 C19.223,8.919 19.743,8.634 20.242,8.778 L24.251,9.931 C24.749,10.074 25.036,10.591 24.891,11.085 C24.772,11.492 24.397,11.757 23.990,11.757 ZM15.588,9.339 C15.501,9.339 15.413,9.327 15.325,9.302 L13.706,8.836 C13.207,8.693 12.921,8.176 13.065,7.683 C13.210,7.189 13.731,6.905 14.229,7.048 L15.849,7.514 C16.347,7.657 16.634,8.173 16.489,8.667 C16.370,9.075 15.995,9.339 15.588,9.339 Z"/>
<path fill="url(#PSgrad_0)"
 d="M57.719,47.581 C56.861,50.508 54.117,52.552 51.044,52.552 C50.392,52.552 49.739,52.460 49.103,52.277 L28.937,46.444 L28.937,56.077 C28.937,56.097 28.935,56.117 28.934,56.137 C28.961,56.138 28.986,56.139 29.013,56.139 C30.114,56.139 30.625,55.777 31.272,55.319 C32.006,54.799 32.920,54.153 34.624,54.153 C36.328,54.153 37.241,54.799 37.976,55.319 C38.622,55.777 39.133,56.139 40.235,56.139 C41.337,56.139 41.847,55.777 42.494,55.319 C43.228,54.799 44.142,54.153 45.846,54.153 C47.549,54.153 48.463,54.799 49.197,55.319 C49.843,55.777 50.354,56.139 51.455,56.139 C52.555,56.139 53.065,55.777 53.711,55.319 C54.445,54.800 55.358,54.153 57.060,54.153 C57.579,54.153 58.000,54.570 58.000,55.084 C58.000,55.598 57.579,56.015 57.060,56.015 C55.960,56.015 55.450,56.376 54.804,56.834 C54.070,57.354 53.157,58.001 51.454,58.001 C49.751,58.001 48.838,57.354 48.104,56.834 C47.457,56.376 46.947,56.015 45.846,56.015 C44.744,56.015 44.233,56.377 43.587,56.834 C42.853,57.354 41.939,58.001 40.235,58.001 C38.531,58.001 37.617,57.354 36.883,56.834 C36.236,56.377 35.725,56.015 34.624,56.015 C33.522,56.015 33.011,56.377 32.364,56.834 C31.630,57.354 30.717,58.001 29.013,58.001 C27.308,58.001 26.395,57.354 25.660,56.834 C25.013,56.377 24.502,56.015 23.400,56.015 C22.299,56.015 21.788,56.377 21.141,56.834 C20.408,57.354 19.494,58.001 17.791,58.001 C16.086,58.001 15.172,57.354 14.437,56.834 C13.790,56.377 13.279,56.015 12.176,56.015 C11.072,56.015 10.560,56.377 9.913,56.835 C9.178,57.354 8.263,58.001 6.558,58.001 C4.852,58.001 3.938,57.354 3.203,56.835 C2.555,56.377 2.043,56.015 0.939,56.015 C0.421,56.015 -0.000,55.598 -0.000,55.084 C-0.000,54.570 0.421,54.153 0.939,54.153 C2.645,54.153 3.559,54.799 4.294,55.319 C4.942,55.777 5.454,56.139 6.558,56.139 C7.662,56.139 8.173,55.777 8.821,55.319 C9.556,54.799 10.471,54.153 12.176,54.153 C13.881,54.153 14.795,54.799 15.529,55.319 C16.177,55.777 16.688,56.139 17.791,56.139 C18.892,56.139 19.402,55.777 20.049,55.319 C20.731,54.837 21.569,54.245 23.050,54.163 L23.050,44.741 L10.022,40.973 C6.342,39.914 4.216,36.084 5.285,32.436 L5.285,32.436 C5.803,30.668 6.985,29.206 8.613,28.319 C8.743,28.249 8.874,28.184 9.006,28.122 C5.963,26.708 4.319,23.263 5.285,19.966 C5.803,18.198 6.985,16.736 8.613,15.849 C8.698,15.803 8.783,15.760 8.869,15.718 L3.971,14.308 C3.472,14.165 3.061,13.838 2.811,13.388 C2.561,12.938 2.503,12.418 2.647,11.924 L5.441,2.387 C5.740,1.368 6.819,0.779 7.847,1.075 L37.732,9.673 C41.265,10.689 43.511,14.184 42.847,17.628 C42.418,19.851 40.941,21.657 38.987,22.579 C42.019,23.999 43.655,27.436 42.690,30.727 C42.130,32.639 40.765,34.174 39.028,35.009 L44.305,36.536 C44.801,36.679 45.087,37.192 44.946,37.685 C44.183,40.337 45.737,43.121 48.409,43.890 L57.086,46.399 C57.570,46.540 57.854,47.032 57.736,47.513 C57.731,47.536 57.725,47.559 57.719,47.581 ZM24.929,54.360 C25.723,54.592 26.276,54.982 26.752,55.319 C26.857,55.393 26.958,55.464 27.058,55.532 L27.058,45.900 L24.929,45.284 L24.929,54.360 ZM7.324,2.864 C7.318,2.862 7.312,2.861 7.306,2.861 C7.279,2.861 7.254,2.879 7.246,2.906 L4.452,12.443 C4.442,12.476 4.461,12.511 4.494,12.520 L6.671,13.146 L9.500,3.490 L7.324,2.864 ZM41.001,17.278 C41.486,14.768 39.819,12.213 37.208,11.461 L11.305,4.009 L8.475,13.665 L34.599,21.181 C35.064,21.315 35.541,21.382 36.016,21.382 C38.446,21.382 40.543,19.656 41.001,17.278 ZM40.886,30.208 C41.666,27.546 40.114,24.751 37.428,23.979 L13.376,17.059 C12.908,16.923 12.430,16.856 11.955,16.856 C11.112,16.856 10.278,17.067 9.518,17.481 C8.330,18.128 7.467,19.195 7.089,20.485 C6.309,23.147 7.861,25.942 10.547,26.714 L34.599,33.634 C35.064,33.768 35.541,33.836 36.016,33.836 C38.258,33.836 40.260,32.344 40.886,30.208 ZM47.884,45.677 C44.527,44.712 42.458,41.424 42.943,38.082 L13.375,29.529 C12.076,29.154 10.706,29.304 9.518,29.951 C8.330,30.598 7.467,31.665 7.089,32.955 C6.309,35.617 7.861,38.412 10.547,39.184 L49.628,50.489 C50.092,50.623 50.569,50.690 51.044,50.690 C52.978,50.690 54.734,49.580 55.581,47.904 L47.884,45.677 ZM32.007,39.017 C31.920,39.017 31.831,39.005 31.743,38.980 L17.714,34.922 C17.216,34.778 16.930,34.261 17.075,33.767 C17.221,33.273 17.742,32.990 18.240,33.134 L32.270,37.192 C32.768,37.337 33.054,37.853 32.908,38.347 C32.789,38.753 32.414,39.017 32.007,39.017 ZM13.968,33.800 C13.881,33.800 13.793,33.787 13.705,33.762 L12.255,33.343 C11.757,33.199 11.471,32.681 11.616,32.188 C11.762,31.694 12.284,31.411 12.781,31.555 L14.231,31.975 C14.729,32.119 15.015,32.636 14.870,33.129 C14.750,33.536 14.375,33.800 13.968,33.800 ZM26.996,25.075 C26.909,25.075 26.821,25.063 26.733,25.038 L17.715,22.443 C17.217,22.300 16.930,21.783 17.075,21.289 C17.219,20.796 17.741,20.511 18.239,20.655 L27.258,23.250 C27.756,23.393 28.042,23.909 27.898,24.403 C27.778,24.811 27.403,25.075 26.996,25.075 ZM13.968,21.327 C13.881,21.327 13.793,21.315 13.705,21.289 L12.256,20.872 C11.758,20.729 11.471,20.213 11.616,19.719 C11.760,19.225 12.281,18.941 12.780,19.084 L14.229,19.501 C14.728,19.644 15.014,20.161 14.870,20.655 C14.750,21.062 14.375,21.327 13.968,21.327 ZM23.990,11.757 C23.903,11.757 23.815,11.745 23.727,11.719 L19.718,10.566 C19.220,10.423 18.933,9.906 19.078,9.412 C19.223,8.919 19.743,8.634 20.242,8.778 L24.251,9.931 C24.749,10.074 25.036,10.591 24.891,11.085 C24.772,11.492 24.397,11.757 23.990,11.757 ZM15.588,9.339 C15.501,9.339 15.413,9.327 15.325,9.302 L13.706,8.836 C13.207,8.693 12.921,8.176 13.065,7.683 C13.210,7.189 13.731,6.905 14.229,7.048 L15.849,7.514 C16.347,7.657 16.634,8.173 16.489,8.667 C16.370,9.075 15.995,9.339 15.588,9.339 Z"/>
</svg>