<svg 
 xmlns="http://www.w3.org/2000/svg"
 xmlns:xlink="http://www.w3.org/1999/xlink"
 width="57px" height="57px">
<defs>
<linearGradient id="PSgrad_0" x1="0%" x2="100%" y1="0%" y2="0%">
  <stop offset="0%" stop-color="rgb(0,80,131)" stop-opacity="1" />
  <stop offset="100%" stop-color="rgb(34,185,119)" stop-opacity="1" />
</linearGradient>

</defs>
<path fill-rule="evenodd"  fill="rgb(0, 0, 0)"
 d="M56.163,57.000 L27.679,57.000 C27.341,57.000 27.036,56.796 26.907,56.482 C26.777,56.168 26.849,55.807 27.088,55.567 L31.903,50.737 L6.338,50.737 C4.675,50.737 3.104,50.096 1.915,48.931 C0.801,47.842 0.135,46.407 0.020,44.862 C0.007,44.804 -0.000,44.744 -0.000,44.682 L-0.000,9.033 C-0.000,5.393 2.952,2.432 6.580,2.432 C7.042,2.432 7.417,2.807 7.417,3.271 L7.417,11.574 L33.386,11.574 L39.209,5.733 L41.927,3.006 L44.176,0.749 C44.658,0.266 45.299,-0.000 45.980,-0.000 C46.662,-0.000 47.302,0.266 47.784,0.749 L50.384,3.357 C50.866,3.841 51.131,4.484 51.131,5.167 C51.131,5.851 50.866,6.494 50.384,6.977 L48.136,9.233 C48.135,9.233 48.135,9.233 48.135,9.234 L45.801,11.575 L52.229,11.575 C52.691,11.575 53.066,11.950 53.066,12.414 L53.066,29.505 L55.572,26.992 C55.811,26.752 56.171,26.680 56.483,26.810 C56.796,26.940 57.000,27.246 57.000,27.585 L57.000,56.160 C57.000,56.624 56.625,57.000 56.163,57.000 ZM49.201,5.790 C49.543,5.447 49.543,4.888 49.201,4.545 L46.601,1.936 C46.259,1.593 45.702,1.593 45.360,1.936 L43.702,3.600 L47.543,7.453 L49.201,5.790 ZM46.360,8.640 L42.519,4.787 L40.984,6.327 L44.825,10.180 L46.360,8.640 ZM55.327,51.319 L53.783,51.319 C53.321,51.319 52.947,50.943 52.947,50.479 C52.947,50.016 53.321,49.640 53.783,49.640 L55.327,49.640 L55.327,47.111 L53.783,47.111 C53.321,47.111 52.947,46.735 52.947,46.271 C52.947,45.808 53.321,45.432 53.783,45.432 L55.327,45.432 L55.327,42.903 L53.783,42.903 C53.321,42.903 52.947,42.527 52.947,42.063 C52.947,41.600 53.321,41.224 53.783,41.224 L55.327,41.224 L55.327,38.695 L53.783,38.695 C53.321,38.695 52.947,38.319 52.947,37.856 C52.947,37.392 53.321,37.016 53.783,37.016 L55.327,37.016 L55.327,29.611 L40.609,44.377 C40.609,44.377 40.609,44.377 40.609,44.377 C40.588,44.398 40.567,44.417 40.545,44.435 C40.392,44.560 40.204,44.623 40.017,44.623 C39.830,44.623 39.642,44.560 39.489,44.435 C39.467,44.417 39.446,44.398 39.425,44.377 C39.099,44.049 39.099,43.518 39.425,43.190 L51.393,31.184 L51.393,13.253 L44.128,13.253 L26.912,30.525 C26.890,30.547 26.867,30.567 26.844,30.586 C26.839,30.589 26.834,30.592 26.830,30.596 C26.810,30.611 26.791,30.625 26.771,30.638 C26.764,30.642 26.758,30.646 26.752,30.649 C26.732,30.661 26.713,30.672 26.693,30.683 C26.685,30.686 26.677,30.689 26.670,30.693 C26.651,30.702 26.631,30.710 26.611,30.718 C26.607,30.719 26.603,30.721 26.599,30.723 L21.497,32.530 L38.119,32.530 C38.581,32.530 38.956,32.905 38.956,33.369 C38.956,33.832 38.581,34.208 38.119,34.208 L14.950,34.208 C14.488,34.208 14.114,33.832 14.114,33.369 C14.114,32.905 14.488,32.530 14.950,32.530 L17.733,32.530 C17.741,32.487 17.751,32.444 17.766,32.402 L18.877,29.244 L20.507,24.611 C20.509,24.606 20.512,24.600 20.514,24.594 C20.521,24.577 20.528,24.561 20.535,24.544 C20.540,24.533 20.545,24.522 20.550,24.512 C20.558,24.496 20.567,24.480 20.576,24.464 C20.582,24.454 20.588,24.444 20.594,24.435 C20.605,24.418 20.616,24.403 20.628,24.387 C20.634,24.379 20.639,24.371 20.645,24.363 C20.664,24.340 20.683,24.318 20.704,24.297 L24.621,20.368 C24.948,20.040 25.478,20.040 25.804,20.368 C26.131,20.696 26.131,21.227 25.804,21.555 L22.479,24.891 L26.320,28.744 L43.190,11.820 C43.190,11.820 43.190,11.820 43.191,11.819 L43.641,11.367 L39.800,7.514 L34.325,13.007 C34.324,13.007 34.324,13.007 34.324,13.007 L28.271,19.080 C27.944,19.408 27.414,19.408 27.088,19.080 C26.761,18.752 26.761,18.221 27.088,17.893 L31.713,13.253 L7.416,13.253 L7.416,29.477 C7.416,29.941 7.042,30.316 6.580,30.316 C6.118,30.316 5.743,29.941 5.743,29.477 L5.743,12.414 L5.743,4.182 C3.435,4.582 1.673,6.605 1.673,9.033 L1.673,40.288 C1.773,40.175 1.876,40.064 1.985,39.958 C3.019,38.945 4.331,38.313 5.743,38.134 L5.743,32.834 C5.743,32.370 6.118,31.995 6.580,31.995 C7.042,31.995 7.417,32.370 7.417,32.834 L7.417,38.920 C7.417,39.384 7.042,39.759 6.580,39.759 C6.497,39.759 6.414,39.761 6.332,39.766 C6.313,39.766 6.293,39.768 6.273,39.770 C6.210,39.774 6.148,39.778 6.086,39.784 C6.068,39.786 6.050,39.789 6.032,39.791 C5.968,39.798 5.903,39.806 5.840,39.815 C5.828,39.817 5.816,39.819 5.804,39.821 C5.734,39.833 5.664,39.845 5.595,39.859 C5.591,39.860 5.587,39.861 5.582,39.862 C4.072,40.176 2.813,41.189 2.159,42.547 C2.158,42.550 2.156,42.553 2.155,42.556 C2.124,42.621 2.094,42.688 2.065,42.755 C2.059,42.770 2.053,42.786 2.046,42.801 C2.024,42.855 2.002,42.910 1.982,42.965 C1.971,42.994 1.961,43.023 1.951,43.052 C1.936,43.094 1.922,43.135 1.908,43.177 C1.895,43.219 1.882,43.262 1.870,43.305 C1.862,43.334 1.853,43.363 1.845,43.393 C1.830,43.447 1.817,43.502 1.804,43.557 C1.800,43.575 1.796,43.593 1.792,43.611 C1.777,43.676 1.764,43.741 1.752,43.806 C1.751,43.815 1.749,43.823 1.748,43.832 C1.735,43.905 1.724,43.979 1.714,44.053 C1.714,44.054 1.714,44.055 1.714,44.056 C1.694,44.212 1.682,44.371 1.677,44.530 C1.758,47.071 3.800,49.058 6.338,49.058 L33.576,49.058 L36.967,45.657 C37.256,45.367 37.704,45.334 38.030,45.557 C38.072,45.587 38.112,45.619 38.150,45.657 C38.477,45.985 38.477,46.516 38.150,46.844 L29.699,55.322 L55.327,55.322 L55.327,51.319 ZM24.790,29.583 L21.643,26.426 L20.797,28.830 L22.394,30.432 L24.790,29.583 ZM49.524,40.445 C49.763,40.205 50.123,40.133 50.435,40.263 C50.748,40.393 50.952,40.699 50.952,41.038 L50.952,50.211 C50.952,50.674 50.577,51.050 50.115,51.050 L40.972,51.050 C40.634,51.050 40.329,50.846 40.199,50.532 C40.070,50.218 40.141,49.857 40.381,49.617 L49.524,40.445 ZM49.278,49.372 L49.278,43.065 L42.992,49.372 L49.278,49.372 Z"/>
<path fill="url(#PSgrad_0)"
 d="M56.163,57.000 L27.679,57.000 C27.341,57.000 27.036,56.796 26.907,56.482 C26.777,56.168 26.849,55.807 27.088,55.567 L31.903,50.737 L6.338,50.737 C4.675,50.737 3.104,50.096 1.915,48.931 C0.801,47.842 0.135,46.407 0.020,44.862 C0.007,44.804 -0.000,44.744 -0.000,44.682 L-0.000,9.033 C-0.000,5.393 2.952,2.432 6.580,2.432 C7.042,2.432 7.417,2.807 7.417,3.271 L7.417,11.574 L33.386,11.574 L39.209,5.733 L41.927,3.006 L44.176,0.749 C44.658,0.266 45.299,-0.000 45.980,-0.000 C46.662,-0.000 47.302,0.266 47.784,0.749 L50.384,3.357 C50.866,3.841 51.131,4.484 51.131,5.167 C51.131,5.851 50.866,6.494 50.384,6.977 L48.136,9.233 C48.135,9.233 48.135,9.233 48.135,9.234 L45.801,11.575 L52.229,11.575 C52.691,11.575 53.066,11.950 53.066,12.414 L53.066,29.505 L55.572,26.992 C55.811,26.752 56.171,26.680 56.483,26.810 C56.796,26.940 57.000,27.246 57.000,27.585 L57.000,56.160 C57.000,56.624 56.625,57.000 56.163,57.000 ZM49.201,5.790 C49.543,5.447 49.543,4.888 49.201,4.545 L46.601,1.936 C46.259,1.593 45.702,1.593 45.360,1.936 L43.702,3.600 L47.543,7.453 L49.201,5.790 ZM46.360,8.640 L42.519,4.787 L40.984,6.327 L44.825,10.180 L46.360,8.640 ZM55.327,51.319 L53.783,51.319 C53.321,51.319 52.947,50.943 52.947,50.479 C52.947,50.016 53.321,49.640 53.783,49.640 L55.327,49.640 L55.327,47.111 L53.783,47.111 C53.321,47.111 52.947,46.735 52.947,46.271 C52.947,45.808 53.321,45.432 53.783,45.432 L55.327,45.432 L55.327,42.903 L53.783,42.903 C53.321,42.903 52.947,42.527 52.947,42.063 C52.947,41.600 53.321,41.224 53.783,41.224 L55.327,41.224 L55.327,38.695 L53.783,38.695 C53.321,38.695 52.947,38.319 52.947,37.856 C52.947,37.392 53.321,37.016 53.783,37.016 L55.327,37.016 L55.327,29.611 L40.609,44.377 C40.609,44.377 40.609,44.377 40.609,44.377 C40.588,44.398 40.567,44.417 40.545,44.435 C40.392,44.560 40.204,44.623 40.017,44.623 C39.830,44.623 39.642,44.560 39.489,44.435 C39.467,44.417 39.446,44.398 39.425,44.377 C39.099,44.049 39.099,43.518 39.425,43.190 L51.393,31.184 L51.393,13.253 L44.128,13.253 L26.912,30.525 C26.890,30.547 26.867,30.567 26.844,30.586 C26.839,30.589 26.834,30.592 26.830,30.596 C26.810,30.611 26.791,30.625 26.771,30.638 C26.764,30.642 26.758,30.646 26.752,30.649 C26.732,30.661 26.713,30.672 26.693,30.683 C26.685,30.686 26.677,30.689 26.670,30.693 C26.651,30.702 26.631,30.710 26.611,30.718 C26.607,30.719 26.603,30.721 26.599,30.723 L21.497,32.530 L38.119,32.530 C38.581,32.530 38.956,32.905 38.956,33.369 C38.956,33.832 38.581,34.208 38.119,34.208 L14.950,34.208 C14.488,34.208 14.114,33.832 14.114,33.369 C14.114,32.905 14.488,32.530 14.950,32.530 L17.733,32.530 C17.741,32.487 17.751,32.444 17.766,32.402 L18.877,29.244 L20.507,24.611 C20.509,24.606 20.512,24.600 20.514,24.594 C20.521,24.577 20.528,24.561 20.535,24.544 C20.540,24.533 20.545,24.522 20.550,24.512 C20.558,24.496 20.567,24.480 20.576,24.464 C20.582,24.454 20.588,24.444 20.594,24.435 C20.605,24.418 20.616,24.403 20.628,24.387 C20.634,24.379 20.639,24.371 20.645,24.363 C20.664,24.340 20.683,24.318 20.704,24.297 L24.621,20.368 C24.948,20.040 25.478,20.040 25.804,20.368 C26.131,20.696 26.131,21.227 25.804,21.555 L22.479,24.891 L26.320,28.744 L43.190,11.820 C43.190,11.820 43.190,11.820 43.191,11.819 L43.641,11.367 L39.800,7.514 L34.325,13.007 C34.324,13.007 34.324,13.007 34.324,13.007 L28.271,19.080 C27.944,19.408 27.414,19.408 27.088,19.080 C26.761,18.752 26.761,18.221 27.088,17.893 L31.713,13.253 L7.416,13.253 L7.416,29.477 C7.416,29.941 7.042,30.316 6.580,30.316 C6.118,30.316 5.743,29.941 5.743,29.477 L5.743,12.414 L5.743,4.182 C3.435,4.582 1.673,6.605 1.673,9.033 L1.673,40.288 C1.773,40.175 1.876,40.064 1.985,39.958 C3.019,38.945 4.331,38.313 5.743,38.134 L5.743,32.834 C5.743,32.370 6.118,31.995 6.580,31.995 C7.042,31.995 7.417,32.370 7.417,32.834 L7.417,38.920 C7.417,39.384 7.042,39.759 6.580,39.759 C6.497,39.759 6.414,39.761 6.332,39.766 C6.313,39.766 6.293,39.768 6.273,39.770 C6.210,39.774 6.148,39.778 6.086,39.784 C6.068,39.786 6.050,39.789 6.032,39.791 C5.968,39.798 5.903,39.806 5.840,39.815 C5.828,39.817 5.816,39.819 5.804,39.821 C5.734,39.833 5.664,39.845 5.595,39.859 C5.591,39.860 5.587,39.861 5.582,39.862 C4.072,40.176 2.813,41.189 2.159,42.547 C2.158,42.550 2.156,42.553 2.155,42.556 C2.124,42.621 2.094,42.688 2.065,42.755 C2.059,42.770 2.053,42.786 2.046,42.801 C2.024,42.855 2.002,42.910 1.982,42.965 C1.971,42.994 1.961,43.023 1.951,43.052 C1.936,43.094 1.922,43.135 1.908,43.177 C1.895,43.219 1.882,43.262 1.870,43.305 C1.862,43.334 1.853,43.363 1.845,43.393 C1.830,43.447 1.817,43.502 1.804,43.557 C1.800,43.575 1.796,43.593 1.792,43.611 C1.777,43.676 1.764,43.741 1.752,43.806 C1.751,43.815 1.749,43.823 1.748,43.832 C1.735,43.905 1.724,43.979 1.714,44.053 C1.714,44.054 1.714,44.055 1.714,44.056 C1.694,44.212 1.682,44.371 1.677,44.530 C1.758,47.071 3.800,49.058 6.338,49.058 L33.576,49.058 L36.967,45.657 C37.256,45.367 37.704,45.334 38.030,45.557 C38.072,45.587 38.112,45.619 38.150,45.657 C38.477,45.985 38.477,46.516 38.150,46.844 L29.699,55.322 L55.327,55.322 L55.327,51.319 ZM24.790,29.583 L21.643,26.426 L20.797,28.830 L22.394,30.432 L24.790,29.583 ZM49.524,40.445 C49.763,40.205 50.123,40.133 50.435,40.263 C50.748,40.393 50.952,40.699 50.952,41.038 L50.952,50.211 C50.952,50.674 50.577,51.050 50.115,51.050 L40.972,51.050 C40.634,51.050 40.329,50.846 40.199,50.532 C40.070,50.218 40.141,49.857 40.381,49.617 L49.524,40.445 ZM49.278,49.372 L49.278,43.065 L42.992,49.372 L49.278,49.372 Z"/>
</svg>